<svg width="129" height="40" viewBox="0 0 129 40" fill="none" xmlns="http://www.w3.org/2000/svg">
<g clip-path="url(#clip0_1_2)">
<path d="M7.18945 9.5L7.71338 9.37354C7.78564 9.37354 7.82178 9.4458 7.82178 9.59033C7.82178 9.72282 7.611 9.94564 7.18945 10.2588C6.77995 10.5719 6.28011 10.7285 5.68994 10.7285C5.11182 10.7285 4.65413 10.5599 4.31689 10.2227C3.9917 9.88542 3.8291 9.4458 3.8291 8.90381C3.8291 7.7596 4.57585 6.62744 6.06934 5.50732C7.56283 4.37516 9.39958 3.47184 11.5796 2.79736C13.7596 2.11084 15.8493 1.76758 17.8486 1.76758C20.7754 1.76758 22.9494 2.24333 24.3706 3.19482C25.8039 4.14632 26.5205 5.42301 26.5205 7.0249C26.5205 9.07243 25.0993 11.0537 22.2568 12.9688C20.7633 13.9805 19.1494 14.7874 17.415 15.3896C19.318 15.5944 20.8356 16.2087 21.9678 17.2324C22.8229 18.0033 23.2505 18.9849 23.2505 20.1772C23.2505 21.3696 22.6784 22.5861 21.5342 23.8267C20.402 25.0552 18.8905 26.0789 16.9995 26.8979C15.1086 27.7049 13.1755 28.1084 11.2002 28.1084C8.92383 28.1084 7.24967 27.6086 6.17773 26.6089C5.69596 26.1512 5.45508 25.7477 5.45508 25.3984C5.45508 25.0371 5.54541 24.6577 5.72607 24.2603C4.84684 25.8501 4.20247 27.0485 3.79297 27.8555C3.6123 28.2168 3.24495 28.3975 2.69092 28.3975C2.14893 28.3975 1.72738 28.2529 1.42627 27.9639C1.12516 27.6748 0.974609 27.3496 0.974609 26.9883C0.974609 26.627 1.02881 26.3078 1.13721 26.0308C1.6792 24.6095 3.58822 21.2853 6.86426 16.0581C10.1523 10.8188 12.1637 7.78369 12.8984 6.95264C13.2839 6.48291 14.1571 6.24805 15.5181 6.24805C16.0601 6.24805 16.3311 6.36849 16.3311 6.60938C16.3311 6.79004 15.5301 8.14502 13.9282 10.6743C12.3263 13.2036 11.4893 14.5285 11.417 14.6489C13.0911 14.1672 14.8014 13.5107 16.5479 12.6797C18.3063 11.8366 19.8359 10.8851 21.1367 9.8252C22.4495 8.7653 23.106 7.80778 23.106 6.95264C23.106 5.54346 21.5763 4.83887 18.5171 4.83887C15.3133 4.83887 12.23 5.68799 9.26709 7.38623C8.53239 7.80778 7.97233 8.1932 7.58691 8.54248C7.2015 8.89176 7.00879 9.13867 7.00879 9.2832C7.00879 9.42773 7.06901 9.5 7.18945 9.5ZM10.4414 18.1357C10.2246 18.1357 9.98372 17.8828 9.71875 17.377C8.57454 19.2077 7.37614 21.2432 6.12354 23.4834C6.68962 22.7005 7.51465 22.3091 8.59863 22.3091C9.32129 22.3091 9.68262 22.3994 9.68262 22.5801C9.68262 22.6523 9.60433 22.7186 9.44775 22.7788C8.96598 22.9595 8.7251 23.2305 8.7251 23.5918C8.7251 24.459 9.64648 24.8926 11.4893 24.8926C13.9824 24.8926 16.2407 24.0254 18.2642 22.291C19.3481 21.3757 19.8901 20.5747 19.8901 19.8882C19.8901 19.4666 19.4505 19.0029 18.5713 18.4971C17.5475 17.931 15.9878 17.6479 13.8921 17.6479C12.4347 17.6479 11.5013 17.7323 11.0918 17.9009C10.6823 18.0575 10.4655 18.1357 10.4414 18.1357ZM32.3198 25.7417C30.0796 27.741 27.4058 28.7407 24.2983 28.7407C22.4194 28.7407 21.0765 28.3433 20.2695 27.5483C19.8118 27.1147 19.583 26.3499 19.583 25.2539C19.583 23.5677 20.8657 22.4777 23.4312 21.9839C24.2381 21.8273 25.2077 21.749 26.3398 21.749C27.472 21.749 29.0197 21.9598 30.9829 22.3813C32.0308 21.2131 33.2773 19.4967 34.7227 17.2324C36.18 14.9561 37.3302 13.2036 38.1733 11.9751C39.0164 10.7466 39.974 9.49398 41.0459 8.21729C42.1178 6.92855 43.238 5.76628 44.4062 4.73047C46.779 2.61068 49.1276 1.55078 51.4521 1.55078C52.488 1.55078 53.2347 1.81576 53.6924 2.3457C54.1501 2.86361 54.3789 3.48389 54.3789 4.20654C54.3789 4.91715 54.0477 5.74821 53.3853 6.69971C52.7349 7.6512 51.9761 8.4943 51.1089 9.229C50.2537 9.9637 49.4046 10.59 48.5615 11.1079C47.7305 11.6138 47.0741 11.8667 46.5923 11.8667C46.1105 11.8667 45.695 11.6619 45.3457 11.2524C44.9964 10.8429 44.8218 10.4515 44.8218 10.0781C44.8218 9.69271 44.87 9.42773 44.9663 9.2832C45.0747 9.12663 45.1831 9.04834 45.2915 9.04834C45.3999 9.04834 45.4661 9.11458 45.4902 9.24707C45.8757 9.12663 46.4899 8.75326 47.333 8.12695C48.1882 7.48861 48.965 6.82617 49.6636 6.13965C50.3621 5.45312 50.7114 5.02555 50.7114 4.85693C50.7114 4.67627 50.603 4.58594 50.3862 4.58594C50.1815 4.58594 49.8984 4.6582 49.5371 4.80273C49.1758 4.94727 48.694 5.24837 48.0918 5.70605C47.4896 6.15169 46.8392 6.72982 46.1406 7.44043C44.4544 9.12663 42.5755 11.5174 40.5039 14.6128C40.0221 15.3114 39.3416 16.3291 38.4624 17.666C36.6678 20.376 35.3851 22.2308 34.6143 23.2305C40.793 24.8564 45.2072 25.6694 47.8569 25.6694C49.0854 25.6694 49.9466 25.5129 50.4404 25.1997C50.6211 25.0913 50.7415 25.0371 50.8018 25.0371C50.862 25.0371 50.8921 25.0853 50.8921 25.1816C50.8921 25.278 50.8379 25.4225 50.7295 25.6152C50.6211 25.8079 50.3501 26.2174 49.9165 26.8438C49.495 27.4701 49.1818 27.8434 48.9771 27.9639C48.3869 28.3132 47.3812 28.4878 45.96 28.4878C44.5508 28.4878 43.2018 28.3854 41.9131 28.1807C40.6364 27.9759 39.6066 27.7772 38.8237 27.5845C38.0409 27.3797 36.8786 27.0545 35.3369 26.6089C33.8073 26.1632 32.8016 25.8742 32.3198 25.7417ZM25.7256 24.6396C24.1478 24.6396 23.3589 24.8263 23.3589 25.1997C23.3589 25.3442 23.4914 25.4707 23.7563 25.5791C24.0334 25.6875 24.3586 25.7417 24.7319 25.7417C25.9002 25.7417 27.0264 25.4346 28.1104 24.8203C27.1829 24.6999 26.388 24.6396 25.7256 24.6396ZM75.6611 3.80908C76.2995 3.80908 76.9137 4.07406 77.5039 4.604C78.1061 5.13395 78.4072 5.72412 78.4072 6.37451C78.4072 7.0249 78.2446 7.87402 77.9194 8.92188C77.5942 9.95768 77.1366 11.0658 76.5464 12.2461C75.9683 13.4144 75.2576 14.6309 74.4146 15.8955C73.5835 17.1481 72.6742 18.3706 71.6865 19.563C70.7109 20.7433 69.633 21.8695 68.4526 22.9414C67.2843 24.0013 66.098 24.9287 64.8936 25.7236C62.2679 27.458 59.7025 28.3252 57.1973 28.3252C56.3301 28.3252 55.5592 28.0964 54.8848 27.6387C54.2103 27.181 53.6864 26.7293 53.313 26.2837C52.4578 25.2599 52.0303 23.8447 52.0303 22.0381C52.0303 20.2194 52.6265 18.0876 53.8188 15.6426C55.0233 13.1976 56.6613 10.8911 58.7329 8.72314C60.8166 6.54313 63.1471 4.76058 65.7246 3.37549C68.3021 1.97835 70.7531 1.27979 73.0776 1.27979C73.5353 1.27979 73.9689 1.38216 74.3784 1.58691C74.7879 1.79167 74.9927 2.03255 74.9927 2.30957C74.9927 2.57454 74.9264 2.79736 74.7939 2.97803C74.6615 3.14665 74.535 3.33333 74.4146 3.53809C74.2941 3.73079 74.1917 3.8693 74.1074 3.95361C74.5049 3.85726 75.0228 3.80908 75.6611 3.80908ZM68.9224 12.1558C68.9224 12.3966 68.8381 12.5171 68.6694 12.5171C68.5008 12.5171 68.1515 12.228 67.6216 11.6499C67.0916 11.0597 66.8267 10.5659 66.8267 10.1685C66.8267 9.24105 67.4469 8.18717 68.6875 7.00684C69.9401 5.8265 71.3312 4.9292 72.8608 4.31494C71.1746 4.4113 69.2174 5.12793 66.9893 6.46484C64.7611 7.80176 62.8099 9.41569 61.1357 11.3066C59.4616 13.1855 58.1066 15.1488 57.0708 17.1963C56.047 19.2438 55.5352 20.9059 55.5352 22.1826C55.5352 22.9655 55.7098 23.64 56.0591 24.2061C56.4084 24.7601 56.9985 25.0371 57.8296 25.0371C58.6727 25.0371 59.6844 24.748 60.8647 24.1699C62.0451 23.5918 63.1953 22.833 64.3154 21.8936C68.1696 18.6296 71.1807 15.0042 73.3486 11.0176C74.2279 9.37956 74.6675 8.2474 74.6675 7.62109C74.6675 7.36816 74.5832 7.2417 74.4146 7.2417C73.9207 7.2417 73.2222 7.56087 72.3188 8.19922C71.4155 8.82552 70.6146 9.51807 69.916 10.2769C69.2174 11.0356 68.8682 11.5837 68.8682 11.9209L68.9224 12.1558ZM103.357 5.54346C103.357 6.15771 102.965 6.89844 102.183 7.76562C101.4 8.63281 100.43 9.45785 99.2739 10.2407C98.1297 11.0236 96.9915 11.6439 95.8594 12.1016C96.1123 12.0173 96.3713 11.9751 96.6362 11.9751C97.5275 11.9751 98.1177 12.1377 98.4067 12.4629C98.479 12.5352 98.5151 12.6195 98.5151 12.7158C98.5151 12.8122 98.3525 13.047 98.0273 13.4204C94.6429 17.3348 91.5355 21.2191 88.7051 25.0732C89.8613 24.1699 90.8851 23.3088 91.7764 22.4897C92.2702 22.0441 92.8724 21.8213 93.583 21.8213C94.1009 21.8213 94.4201 21.8875 94.5405 22.02C94.661 22.1525 94.7212 22.2669 94.7212 22.3633C94.7212 22.4476 94.6429 22.55 94.4863 22.6704C92.4749 24.4289 89.1929 26.9943 84.6401 30.3667C83.8573 31.2459 81.882 33.3416 78.7144 36.6538C78.1483 37.2319 77.522 37.521 76.8354 37.521C75.4985 37.521 74.8301 37.1476 74.8301 36.4009C74.8301 36.0757 75.089 35.5578 75.6069 34.8472C76.3537 33.7511 78.1784 32.0951 81.0811 29.8789C81.7194 29.1683 82.8215 27.9639 84.3872 26.2656C87.3501 23.0378 89.1387 20.9661 89.7529 20.0508C88.1149 21.6045 86.8743 22.7005 86.0312 23.3389C85.1882 23.9772 84.4053 24.5312 83.6826 25.001C82.972 25.4707 82.3156 25.8501 81.7134 26.1392C78.7987 27.5363 76.721 27.5423 75.4805 26.1572C74.8542 25.4707 74.541 24.465 74.541 23.1401C74.541 21.8032 74.9084 20.3338 75.6431 18.7319C76.3778 17.13 77.3594 15.5522 78.5879 13.9985C79.8164 12.4328 81.2738 10.9092 82.96 9.42773C84.6462 7.94629 86.3986 6.64551 88.2173 5.52539C90.036 4.40527 91.951 3.50798 93.9624 2.8335C95.9738 2.14697 97.8708 1.80371 99.6533 1.80371C100.268 1.80371 100.846 1.90609 101.388 2.11084C101.93 2.31559 102.315 2.53239 102.544 2.76123C103.086 3.30322 103.357 4.23063 103.357 5.54346ZM92.9146 9.31934L92.8242 9.68066C92.8242 9.88542 92.9627 9.98779 93.2397 9.98779C93.9744 9.98779 94.9801 9.63249 96.2568 8.92188C97.5335 8.21126 98.5633 7.48258 99.3462 6.73584C100.129 5.9891 100.521 5.36882 100.521 4.875C100.521 4.45345 100.147 4.24268 99.4004 4.24268C98.0755 4.24268 96.582 4.56787 94.9199 5.21826C93.2699 5.86865 91.6559 6.71175 90.0781 7.74756C88.5003 8.78337 86.9466 9.97575 85.417 11.3247C83.8874 12.6616 82.5505 14.0046 81.4062 15.3535C80.2741 16.6904 79.3587 18.0033 78.6602 19.292C77.9616 20.5807 77.6123 21.6828 77.6123 22.5981C77.6123 22.9595 77.7147 23.2786 77.9194 23.5557C78.1362 23.8327 78.4494 23.9712 78.8589 23.9712C80.1235 23.9712 82.159 23.0016 84.9653 21.0625C87.7837 19.1234 91.0176 16.4797 94.667 13.1313C94.7152 13.0832 94.7995 12.9928 94.9199 12.8604C95.1849 12.5352 95.4559 12.3003 95.7329 12.1558C94.7453 12.5532 93.9383 12.752 93.312 12.752C92.6857 12.752 92.1678 12.6134 91.7583 12.3364C91.3488 12.0594 91.144 11.686 91.144 11.2163C91.144 10.7345 91.3548 10.2829 91.7764 9.86133C92.1979 9.43978 92.493 9.229 92.6616 9.229C92.8302 9.229 92.9146 9.25911 92.9146 9.31934ZM126.374 2.90576L127.06 2.86963C127.265 2.86963 127.494 2.95996 127.747 3.14062C128.012 3.32129 128.144 3.47786 128.144 3.61035C128.084 3.87533 126.663 6.29622 123.88 10.873C115.196 25.1455 110.415 33.1971 109.536 35.0278C109.981 34.5581 110.469 34.0944 110.999 33.6367C111.541 33.1911 111.842 32.9683 111.902 32.9683C111.975 32.9683 112.047 33.0044 112.119 33.0767C112.191 33.161 112.228 33.2393 112.228 33.3115C112.228 33.3958 112.173 33.4982 112.065 33.6187C111.957 33.7391 111.577 34.2148 110.927 35.0459C110.288 35.889 109.813 36.4852 109.5 36.8345C109.186 37.1958 108.903 37.5752 108.65 37.9727C108.41 38.3822 108.199 38.6712 108.018 38.8398C107.849 39.0085 107.639 39.0928 107.386 39.0928C106.651 39.0928 106.031 38.7736 105.525 38.1353C105.031 37.509 104.784 36.979 104.784 36.5454C104.784 35.7023 106.573 32.4142 110.15 26.6812C113.739 20.9481 116.901 16.1364 119.635 12.2461C113.312 19.7135 108.277 24.6156 104.531 26.9521C103.23 27.7712 102.171 28.1807 101.352 28.1807C100.954 28.1807 100.557 28.0662 100.159 27.8374C99.7738 27.6086 99.4907 27.3195 99.3101 26.9702C99.1414 26.6209 99.0571 26.0007 99.0571 25.1094C99.0571 24.2061 99.4425 22.9173 100.213 21.2432C100.984 19.557 101.978 17.7563 103.194 15.8413C105.35 12.4207 107.338 9.49398 109.156 7.06104C107.542 8.51839 106.223 9.24707 105.2 9.24707C104.73 9.24707 104.417 9.18083 104.26 9.04834C104.116 8.90381 103.911 8.68701 103.646 8.39795C103.393 8.09684 103.267 7.77165 103.267 7.42236C103.267 7.06104 103.327 6.77799 103.447 6.57324C103.58 6.36849 103.7 6.21191 103.809 6.10352C104.218 5.69401 104.483 5.45312 104.604 5.38086C104.724 5.30859 104.868 5.27246 105.037 5.27246C105.218 5.27246 105.308 5.30257 105.308 5.36279C105.308 5.41097 105.242 5.48926 105.109 5.59766C104.989 5.70605 104.929 5.79036 104.929 5.85059C104.929 5.91081 104.995 5.94092 105.127 5.94092C105.26 5.94092 105.429 5.91081 105.633 5.85059C105.838 5.77832 106.103 5.65788 106.428 5.48926C106.765 5.30859 107.067 5.146 107.332 5.00146C107.609 4.84489 108.018 4.61003 108.56 4.29688C109.102 3.97168 109.512 3.73079 109.789 3.57422C110.078 3.41764 110.493 3.14062 111.035 2.74316C111.589 2.33366 111.999 2.05664 112.264 1.91211C112.709 1.64714 113.071 1.56885 113.348 1.67725C113.637 1.78564 113.86 1.85791 114.016 1.89404C114.185 1.93018 114.329 1.98438 114.45 2.05664C114.582 2.11686 114.703 2.18913 114.811 2.27344C115.184 2.53841 115.371 2.85156 115.371 3.21289C115.371 3.56217 115.196 3.97168 114.847 4.44141C114.51 4.91113 113.745 6.02523 112.553 7.78369C111.36 9.53011 110.011 11.5415 108.506 13.8179C107.012 16.0822 105.694 18.208 104.549 20.1953C103.417 22.1826 102.851 23.4352 102.851 23.9531C102.851 24.1338 102.899 24.2241 102.996 24.2241C103.092 24.2241 103.447 23.9893 104.062 23.5195C107.289 21.0264 111.403 17.118 116.401 11.7944C120.508 7.42236 122.929 4.71842 123.664 3.68262C123.892 3.36947 124.115 3.15869 124.332 3.05029C124.561 2.94189 124.904 2.8877 125.362 2.8877L126.374 2.90576Z" fill="#151515"/>
<path d="M7.18945 9.5V10.2H7.27274L7.3537 10.1805L7.18945 9.5ZM7.71338 9.37354V8.67354H7.63009L7.54913 8.69308L7.71338 9.37354ZM7.18945 10.2588L6.77199 9.69681L6.76424 9.70274L7.18945 10.2588ZM4.31689 10.2227L3.81292 10.7086L3.82192 10.7176L4.31689 10.2227ZM6.06934 5.50732L6.48934 6.06733L6.49221 6.06516L6.06934 5.50732ZM11.5796 2.79736L11.7865 3.4661L11.7899 3.46504L11.5796 2.79736ZM24.3706 3.19482L23.9812 3.7765L23.9834 3.77801L24.3706 3.19482ZM22.2568 12.9688L21.8657 12.3882L21.8642 12.3892L22.2568 12.9688ZM17.415 15.3896L17.1854 14.7284L17.3402 16.0856L17.415 15.3896ZM21.9678 17.2324L21.4983 17.7516L21.4991 17.7524L21.9678 17.2324ZM21.5342 23.8267L21.0196 23.3521L21.0194 23.3523L21.5342 23.8267ZM16.9995 26.8979L17.2743 27.5418L17.2777 27.5403L16.9995 26.8979ZM6.17773 26.6089L5.69559 27.1164L5.70032 27.1208L6.17773 26.6089ZM5.72607 24.2603L6.36333 24.5499L5.11351 23.9215L5.72607 24.2603ZM3.79297 27.8555L3.16873 27.5387L3.16687 27.5424L3.79297 27.8555ZM1.42627 27.9639L0.941497 28.4688L1.42627 27.9639ZM1.13721 26.0308L1.7891 26.2859L1.79126 26.2802L1.13721 26.0308ZM6.86426 16.0581L6.27135 15.686L6.27112 15.6864L6.86426 16.0581ZM12.8984 6.95264L13.4229 7.41627L13.4314 7.40662L13.4396 7.39666L12.8984 6.95264ZM13.9282 10.6743L13.3368 10.2998L13.9282 10.6743ZM11.417 14.6489L10.8167 14.2888L9.90204 15.8133L11.6106 15.3216L11.417 14.6489ZM16.5479 12.6797L16.8486 13.3118L16.8505 13.3109L16.5479 12.6797ZM21.1367 9.8252L20.697 9.28054L20.6945 9.28253L21.1367 9.8252ZM9.26709 7.38623L8.919 6.77892L8.91872 6.77907L9.26709 7.38623ZM9.71875 17.377L10.3388 17.0521L9.77228 15.9705L9.12515 17.006L9.71875 17.377ZM6.12354 23.4834L5.51256 23.1418L6.69078 23.8936L6.12354 23.4834ZM9.44775 22.7788L9.69355 23.4343L9.69904 23.4322L9.44775 22.7788ZM18.2642 22.291L17.8125 21.7562L17.8086 21.7595L18.2642 22.291ZM18.5713 18.4971L18.9204 17.8902L18.91 17.8845L18.5713 18.4971ZM11.0918 17.9009L11.3418 18.5547L11.3501 18.5515L11.3583 18.5482L11.0918 17.9009ZM7.3537 10.1805L7.87763 10.054L7.54913 8.69308L7.0252 8.81954L7.3537 10.1805ZM7.71338 10.0735C7.60896 10.0735 7.48636 10.0454 7.37251 9.96952C7.26305 9.89654 7.20107 9.80576 7.16858 9.74078C7.11351 9.63064 7.12178 9.55382 7.12178 9.59033H8.52178C8.52178 9.48231 8.51198 9.29709 8.42078 9.11468C8.37022 9.01358 8.28566 8.89569 8.14909 8.80465C8.00815 8.71069 7.85393 8.67354 7.71338 8.67354V10.0735ZM7.12178 9.59033C7.12178 9.4462 7.1752 9.35795 7.18022 9.34949C7.18976 9.3334 7.18761 9.34148 7.15517 9.37577C7.09056 9.44407 6.96965 9.55006 6.77203 9.69687L7.60688 10.8207C7.83081 10.6544 8.02605 10.4924 8.17222 10.3379C8.24517 10.2607 8.32206 10.1687 8.3843 10.0638C8.442 9.96649 8.52178 9.80071 8.52178 9.59033H7.12178ZM6.76424 9.70274C6.49411 9.90931 6.14969 10.0285 5.68994 10.0285V11.4285C6.41053 11.4285 7.06579 11.2346 7.61467 10.8148L6.76424 9.70274ZM5.68994 10.0285C5.25544 10.0285 4.99083 9.90665 4.81187 9.72768L3.82192 10.7176C4.31743 11.2131 4.96819 11.4285 5.68994 11.4285V10.0285ZM4.82079 9.73676C4.64116 9.55048 4.5291 9.29516 4.5291 8.90381H3.1291C3.1291 9.59644 3.34224 10.2204 3.813 10.7086L4.82079 9.73676ZM4.5291 8.90381C4.5291 8.08939 5.06076 7.13876 6.48934 6.06732L5.64934 4.94732C4.09094 6.11612 3.1291 7.42981 3.1291 8.90381H4.5291ZM6.49221 6.06516C7.90831 4.99166 9.66797 4.12154 11.7865 3.46609L11.3727 2.12864C9.13119 2.82214 7.21734 3.75866 5.64646 4.94949L6.49221 6.06516ZM11.7899 3.46504C13.9114 2.79693 15.93 2.46758 17.8486 2.46758V1.06758C15.7686 1.06758 13.6078 1.42475 11.3693 2.12969L11.7899 3.46504ZM17.8486 2.46758C20.7244 2.46758 22.7311 2.93962 23.9812 3.7765L24.76 2.61315C23.1676 1.54704 20.8264 1.06758 17.8486 1.06758V2.46758ZM23.9834 3.77801C25.2385 4.6112 25.8205 5.67744 25.8205 7.0249H27.2205C27.2205 5.16859 26.3692 3.68144 24.7578 2.61164L23.9834 3.77801ZM25.8205 7.0249C25.8205 8.71671 24.6462 10.5149 21.8657 12.3882L22.648 13.5493C25.5524 11.5925 27.2205 9.42815 27.2205 7.0249H25.8205ZM21.8642 12.3892C20.4222 13.3661 18.8632 14.1458 17.1854 14.7284L17.6446 16.0509C19.4356 15.429 21.1045 14.5949 22.6494 13.5483L21.8642 12.3892ZM17.3402 16.0856C19.1339 16.2786 20.5008 16.8497 21.4983 17.7516L22.4373 16.7132C21.1704 15.5677 19.5021 14.9102 17.4899 14.6937L17.3402 16.0856ZM21.4991 17.7524C22.2011 18.3852 22.5505 19.1751 22.5505 20.1772H23.9505C23.9505 18.7947 23.4447 17.6213 22.4365 16.7125L21.4991 17.7524ZM22.5505 20.1772C22.5505 21.1323 22.0941 22.1872 21.0196 23.3521L22.0487 24.3012C23.2627 22.985 23.9505 21.6069 23.9505 20.1772H22.5505ZM21.0194 23.3523C19.9671 24.4942 18.5429 25.4666 16.7213 26.2556L17.2777 27.5403C19.238 26.6913 20.837 25.6162 22.0489 24.301L21.0194 23.3523ZM16.7248 26.2541C14.917 27.0256 13.0772 27.4084 11.2002 27.4084V28.8084C13.2738 28.8084 15.3001 28.3843 17.2743 27.5418L16.7248 26.2541ZM11.2002 27.4084C9.00652 27.4084 7.54186 26.9239 6.65515 26.097L5.70032 27.1208C6.95749 28.2932 8.84113 28.8084 11.2002 28.8084V27.4084ZM6.65986 26.1014C6.20468 25.669 6.15508 25.4423 6.15508 25.3984H4.75508C4.75508 26.0532 5.18724 26.6334 5.69561 27.1164L6.65986 26.1014ZM6.15508 25.3984C6.15508 25.1556 6.21556 24.875 6.36333 24.5499L5.08882 23.9706C4.87526 24.4404 4.75508 24.9186 4.75508 25.3984H6.15508ZM5.11351 23.9215C4.2334 25.5129 3.5841 26.7202 3.16874 27.5387L4.41719 28.1722C4.82085 27.3768 5.46028 26.1873 6.33864 24.599L5.11351 23.9215ZM3.16687 27.5424C3.14837 27.5794 3.0938 27.6975 2.69092 27.6975V29.0975C3.39611 29.0975 4.07624 28.8542 4.41907 28.1685L3.16687 27.5424ZM2.69092 27.6975C2.27374 27.6975 2.04638 27.5888 1.91104 27.4589L0.941497 28.4688C1.40837 28.917 2.02412 29.0975 2.69092 29.0975V27.6975ZM1.91104 27.4589C1.72418 27.2795 1.67461 27.129 1.67461 26.9883H0.274609C0.274609 27.5702 0.526149 28.0701 0.941497 28.4688L1.91104 27.4589ZM1.67461 26.9883C1.67461 26.696 1.71851 26.4662 1.78908 26.2858L0.485337 25.7757C0.33911 26.1494 0.274609 26.5579 0.274609 26.9883H1.67461ZM1.79126 26.2802C2.30318 24.9378 4.16723 21.6796 7.4574 16.4298L6.27112 15.6864C3.0092 20.8911 1.05522 24.2813 0.483153 25.7813L1.79126 26.2802ZM7.45717 16.4302C9.09993 13.8126 10.4213 11.7496 11.4224 10.239C12.4344 8.71185 13.0938 7.78853 13.4229 7.41627L12.374 6.489C11.9684 6.9478 11.2547 7.95758 10.2554 9.46561C9.24503 10.9902 7.91667 13.0643 6.27135 15.686L7.45717 16.4302ZM13.4396 7.39666C13.5044 7.31765 13.6634 7.19723 14.0242 7.10017C14.3798 7.00454 14.8714 6.94805 15.5181 6.94805V5.54805C14.8038 5.54805 14.1783 5.60898 13.6606 5.74822C13.1482 5.88602 12.6779 6.1179 12.3573 6.50862L13.4396 7.39666ZM15.5181 6.94805C15.6294 6.94805 15.7122 6.95434 15.7712 6.96307C15.8323 6.97213 15.8511 6.98142 15.8435 6.97805C15.8352 6.97437 15.777 6.94699 15.7202 6.87129C15.657 6.78697 15.6311 6.68986 15.6311 6.60938H17.0311C17.0311 6.40844 16.9712 6.20595 16.8402 6.03129C16.7157 5.86526 16.5559 5.7626 16.4121 5.69871C16.141 5.5782 15.8192 5.54805 15.5181 5.54805V6.94805ZM15.6311 6.60938C15.6311 6.55475 15.6381 6.51365 15.6419 6.49443C15.6462 6.47292 15.6505 6.45813 15.6523 6.45234C15.6556 6.44155 15.656 6.44255 15.6486 6.45989C15.6343 6.49394 15.6065 6.55253 15.5602 6.64134C15.4687 6.81686 15.3259 7.06974 15.1278 7.40491C14.7328 8.07299 14.1367 9.03684 13.3368 10.2998L14.5196 11.0489C15.3216 9.7825 15.9269 8.80421 16.3329 8.11731C16.5353 7.77499 16.6928 7.49717 16.8015 7.28877C16.8553 7.18563 16.9027 7.08896 16.9384 7.00445C16.9561 6.96251 16.9753 6.9134 16.9911 6.86168C17.0029 6.82299 17.0311 6.72686 17.0311 6.60938H15.6311ZM13.3368 10.2998C11.7399 12.8212 10.8948 14.1587 10.8167 14.2888L12.0172 15.0091C12.0837 14.8983 12.9127 13.586 14.5196 11.0489L13.3368 10.2998ZM11.6106 15.3216C13.3253 14.8282 15.0714 14.1575 16.8486 13.3118L16.2471 12.0476C14.5315 12.864 12.857 13.5061 11.2234 13.9762L11.6106 15.3216ZM16.8505 13.3109C18.6509 12.4477 20.229 11.4678 21.5789 10.3679L20.6945 9.28253C19.4429 10.3024 17.9617 11.2255 16.2452 12.0485L16.8505 13.3109ZM21.5764 10.3698C22.9093 9.29381 23.806 8.15319 23.806 6.95264H22.406C22.406 7.46237 21.9898 8.23679 20.697 9.28054L21.5764 10.3698ZM23.806 6.95264C23.806 6.46545 23.6709 6.01083 23.3862 5.61749C23.1069 5.23146 22.7123 4.94371 22.2516 4.73152C21.3479 4.31523 20.0784 4.13887 18.5171 4.13887V5.53887C20.015 5.53887 21.04 5.7148 21.6659 6.0031C21.97 6.1432 22.149 6.29582 22.2521 6.43824C22.3498 6.57334 22.406 6.73523 22.406 6.95264H23.806ZM18.5171 4.13887C15.1831 4.13887 11.9806 5.02409 8.919 6.77892L9.61518 7.99354C12.4794 6.35189 15.4435 5.53887 18.5171 5.53887V4.13887ZM8.91872 6.77907C8.16395 7.21214 7.55536 7.62639 7.11685 8.02379L8.05698 9.06117C8.3893 8.76 8.90083 8.40342 9.61546 7.99339L8.91872 6.77907ZM7.11685 8.02379C6.9111 8.21025 6.73333 8.39003 6.6015 8.55893C6.53541 8.64361 6.46911 8.74038 6.4169 8.84643C6.36747 8.94685 6.30879 9.09921 6.30879 9.2832H7.70879C7.70879 9.39493 7.6742 9.46223 7.67294 9.46479C7.66891 9.47298 7.67487 9.4591 7.70514 9.42031C7.76602 9.34231 7.87731 9.22399 8.05698 9.06117L7.11685 8.02379ZM6.30879 9.2832C6.30879 9.43544 6.33786 9.67992 6.5162 9.89393C6.71491 10.1324 6.98438 10.2 7.18945 10.2V8.8C7.27409 8.8 7.45322 8.83149 7.59171 8.99767C7.70983 9.13941 7.70879 9.2755 7.70879 9.2832H6.30879ZM10.4414 17.4357C10.6141 17.4357 10.6714 17.533 10.605 17.4633C10.5488 17.4042 10.4577 17.279 10.3388 17.0521L9.09867 17.7018C9.24482 17.9808 9.40662 18.2349 9.59125 18.4288C9.76576 18.612 10.0519 18.8357 10.4414 18.8357V17.4357ZM9.12515 17.006C7.97392 18.8479 6.76971 20.8934 5.51256 23.1418L6.73451 23.825C7.98256 21.5929 9.17517 19.5674 10.3123 17.748L9.12515 17.006ZM6.69078 23.8936C7.10772 23.3169 7.70762 23.0091 8.59863 23.0091V21.6091C7.32168 21.6091 6.27151 22.0841 5.55629 23.0732L6.69078 23.8936ZM8.59863 23.0091C8.94563 23.0091 9.14686 23.0322 9.24185 23.0559C9.29292 23.0687 9.25738 23.0684 9.19487 23.0215C9.15883 22.9945 9.10397 22.9445 9.05791 22.8639C9.00926 22.7787 8.98262 22.6803 8.98262 22.5801H10.3826C10.3826 22.2599 10.2074 22.0309 10.0349 21.9015C9.88202 21.7869 9.71099 21.7301 9.5814 21.6977C9.31506 21.6311 8.97429 21.6091 8.59863 21.6091V23.0091ZM8.98262 22.5801C8.98262 22.335 9.12205 22.1916 9.17174 22.1496C9.21833 22.1102 9.24197 22.108 9.19647 22.1255L9.69904 23.4322C9.81012 23.3894 9.95119 23.324 10.0761 23.2183C10.204 23.11 10.3826 22.8974 10.3826 22.5801H8.98262ZM9.20197 22.1234C8.89643 22.238 8.60363 22.4038 8.38258 22.6525C8.14867 22.9156 8.0251 23.239 8.0251 23.5918H9.4251C9.4251 23.5808 9.42662 23.5811 9.42441 23.5869C9.4222 23.5927 9.42103 23.5915 9.42895 23.5826C9.44877 23.5603 9.51731 23.5003 9.69354 23.4342L9.20197 22.1234ZM8.0251 23.5918C8.0251 23.9401 8.12025 24.2741 8.32664 24.5655C8.52841 24.8503 8.80818 25.0549 9.11808 25.2008C9.71963 25.4838 10.5352 25.5926 11.4893 25.5926V24.1926C10.6006 24.1926 10.034 24.0845 9.7142 23.934C9.5634 23.863 9.49765 23.7966 9.46907 23.7563C9.44512 23.7225 9.4251 23.6771 9.4251 23.5918H8.0251ZM11.4893 25.5926C14.1616 25.5926 16.5789 24.6575 18.7197 22.8225L17.8086 21.7595C15.9026 23.3933 13.8033 24.1926 11.4893 24.1926V25.5926ZM18.7158 22.8258C19.2862 22.3441 19.7439 21.8682 20.0634 21.3961C20.3819 20.9254 20.5901 20.4177 20.5901 19.8882H19.1901C19.1901 20.0452 19.1274 20.2813 18.9039 20.6115C18.6814 20.9403 18.3261 21.3225 17.8125 21.7562L18.7158 22.8258ZM20.5901 19.8882C20.5901 19.4247 20.3494 19.0391 20.0684 18.7426C19.7829 18.4415 19.3886 18.1597 18.9204 17.8903L18.2222 19.1038C18.6332 19.3403 18.8983 19.5433 19.0524 19.7058C19.211 19.8731 19.1901 19.9301 19.1901 19.8882H20.5901ZM18.91 17.8845C17.7297 17.2318 16.026 16.9479 13.8921 16.9479V18.3479C15.9496 18.3479 17.3653 18.6301 18.2326 19.1097L18.91 17.8845ZM13.8921 16.9479C13.1525 16.9479 12.5318 16.9692 12.036 17.014C11.5594 17.0571 11.1338 17.1266 10.8253 17.2536L11.3583 18.5482C11.4593 18.5066 11.7052 18.4496 12.162 18.4083C12.5996 18.3688 13.1743 18.3479 13.8921 18.3479V16.9479ZM10.8418 17.247C10.6382 17.3249 10.4865 17.3818 10.3843 17.4186C10.3325 17.4374 10.2986 17.449 10.2792 17.4553C10.2688 17.4587 10.2693 17.4584 10.2765 17.4564C10.2798 17.4555 10.2917 17.4523 10.3088 17.4488C10.3147 17.4477 10.3694 17.4357 10.4414 17.4357V18.8357C10.5165 18.8357 10.5757 18.8232 10.5875 18.8208C10.6106 18.8161 10.6301 18.8111 10.6425 18.8077C10.6677 18.8009 10.6923 18.7932 10.712 18.7868C10.7528 18.7735 10.8033 18.7558 10.8598 18.7354C10.9745 18.694 11.1359 18.6334 11.3418 18.5547L10.8418 17.247ZM32.3198 25.7417L32.5054 25.0668L32.138 24.9657L31.8537 25.2194L32.3198 25.7417ZM20.2695 27.5483L20.7609 27.0496L20.751 27.0402L20.2695 27.5483ZM23.4312 21.9839L23.5635 22.6713L23.5645 22.6711L23.4312 21.9839ZM30.9829 22.3813L30.836 23.0657L31.2329 23.151L31.504 22.8487L30.9829 22.3813ZM34.7227 17.2324L34.1331 16.855L34.1326 16.8558L34.7227 17.2324ZM41.0459 8.21729L41.582 8.66741L41.5841 8.66492L41.0459 8.21729ZM44.4062 4.73047L44.8706 5.25425L44.8726 5.25248L44.4062 4.73047ZM53.6924 2.3457L53.1626 2.80327L53.1679 2.80924L53.6924 2.3457ZM53.3853 6.69971L52.8107 6.29973L52.8074 6.30469L53.3853 6.69971ZM51.1089 9.229L50.6564 8.6949L50.6527 8.69805L51.1089 9.229ZM48.5615 11.1079L48.9255 11.7059L48.9279 11.7044L48.5615 11.1079ZM44.9663 9.2832L44.3907 8.88469L44.3839 8.89491L44.9663 9.2832ZM45.4902 9.24707L44.8015 9.37229L44.9432 10.1514L45.699 9.91521L45.4902 9.24707ZM47.333 8.12695L47.7504 8.68888L47.7517 8.6879L47.333 8.12695ZM48.0918 5.70605L48.5082 6.26879L48.5154 6.26337L48.0918 5.70605ZM46.1406 7.44043L46.6356 7.93542L46.6398 7.93116L46.1406 7.44043ZM40.5039 14.6128L41.0802 15.0102L41.0856 15.0021L40.5039 14.6128ZM38.4624 17.666L39.046 18.0525L39.0473 18.0507L38.4624 17.666ZM34.6143 23.2305L34.0599 22.803L33.4154 23.6388L34.4361 23.9074L34.6143 23.2305ZM50.4404 25.1997L50.0803 24.5995L50.0729 24.6039L50.0656 24.6086L50.4404 25.1997ZM50.7295 25.6152L50.1194 25.2721L50.7295 25.6152ZM49.9165 26.8438L49.3409 26.4453L49.3358 26.4529L49.9165 26.8438ZM48.9771 27.9639L48.6221 27.3605L48.6205 27.3615L48.9771 27.9639ZM41.9131 28.1807L41.8022 28.8718L41.8032 28.872L41.9131 28.1807ZM38.8237 27.5845L38.6466 28.2618L38.6564 28.2642L38.8237 27.5845ZM35.3369 26.6089L35.1411 27.2809L35.1425 27.2814L35.3369 26.6089ZM23.7563 25.5791L23.4913 26.2271L23.5013 26.231L23.7563 25.5791ZM28.1104 24.8203L28.4555 25.4293L30.2789 24.3961L28.2005 24.1261L28.1104 24.8203ZM31.8537 25.2194C29.7466 27.1 27.2404 28.0407 24.2983 28.0407V29.4407C27.5711 29.4407 30.4126 28.3821 32.7859 26.264L31.8537 25.2194ZM24.2983 28.0407C22.4888 28.0407 21.3732 27.6529 20.7608 27.0497L19.7783 28.047C20.7798 29.0336 22.3501 29.4407 24.2983 29.4407V28.0407ZM20.751 27.0402C20.5064 26.8085 20.283 26.2905 20.283 25.2539H18.883C18.883 26.4094 19.1173 27.421 19.7881 28.0565L20.751 27.0402ZM20.283 25.2539C20.283 24.6158 20.5138 24.1169 20.9983 23.7052C21.5105 23.2699 22.3396 22.9068 23.5635 22.6713L23.2988 21.2965C21.9573 21.5547 20.8623 21.9836 20.0918 22.6383C19.2936 23.3166 18.883 24.2058 18.883 25.2539H20.283ZM23.5645 22.6711C24.3146 22.5255 25.237 22.449 26.3398 22.449V21.049C25.1784 21.049 24.1616 21.1291 23.2978 21.2967L23.5645 22.6711ZM26.3398 22.449C27.3987 22.449 28.8901 22.6479 30.836 23.0657L31.1299 21.6969C29.1493 21.2717 27.5453 21.049 26.3398 21.049V22.449ZM31.504 22.8487C32.5889 21.6391 33.8591 19.8863 35.3127 17.609L34.1326 16.8558C32.6956 19.1072 31.4726 20.787 30.4618 21.914L31.504 22.8487ZM35.3122 17.6098C36.7682 15.3356 37.9137 13.5905 38.7505 12.3712L37.5962 11.579C36.7468 12.8167 35.5918 14.5765 34.1331 16.855L35.3122 17.6098ZM38.7505 12.3712C39.5794 11.1634 40.5229 9.92876 41.582 8.6674L40.5098 7.76717C39.425 9.05919 38.4535 10.3298 37.5962 11.579L38.7505 12.3712ZM41.5841 8.66492C42.635 7.40142 43.7307 6.26493 44.8706 5.25425L43.9419 4.20669C42.7452 5.26762 41.6007 6.45568 40.5077 7.76965L41.5841 8.66492ZM44.8726 5.25248C47.1647 3.20477 49.3543 2.25078 51.4521 2.25078V0.850781C48.9009 0.850781 46.3933 2.01658 43.9399 4.20845L44.8726 5.25248ZM51.4521 2.25078C52.3837 2.25078 52.8913 2.48911 53.1626 2.80324L54.2222 1.88817C53.5781 1.1424 52.5922 0.850781 51.4521 0.850781V2.25078ZM53.1679 2.80924C53.507 3.19297 53.6789 3.64612 53.6789 4.20654H55.0789C55.0789 3.32166 54.7932 2.53425 54.2169 1.88216L53.1679 2.80924ZM53.6789 4.20654C53.6789 4.70948 53.4385 5.3981 52.8108 6.29975L53.9597 7.09967C54.6569 6.09831 55.0789 5.12483 55.0789 4.20654H53.6789ZM52.8074 6.30469C52.1919 7.20516 51.4751 8.00132 50.6564 8.69491L51.5614 9.76309C52.4771 8.98729 53.2779 8.09725 53.9631 7.09472L52.8074 6.30469ZM50.6527 8.69805C49.8219 9.41184 49.0026 10.0154 48.1951 10.5115L48.9279 11.7044C49.8066 11.1646 50.6856 10.5156 51.5651 9.75996L50.6527 8.69805ZM48.1976 10.51C47.385 11.0046 46.8697 11.1667 46.5923 11.1667V12.5667C47.2784 12.5667 48.076 12.223 48.9255 11.7058L48.1976 10.51ZM46.5923 11.1667C46.341 11.1667 46.1121 11.0723 45.8783 10.7982L44.8131 11.7067C45.2779 12.2516 45.8801 12.5667 46.5923 12.5667V11.1667ZM45.8783 10.7982C45.5903 10.4605 45.5218 10.2248 45.5218 10.0781H44.1218C44.1218 10.6782 44.4026 11.2254 44.8131 11.7067L45.8783 10.7982ZM45.5218 10.0781C45.5218 9.9111 45.5325 9.79329 45.5466 9.71555C45.562 9.63073 45.5746 9.63267 45.5487 9.67149L44.3839 8.89491C44.2616 9.07826 44.202 9.28496 44.1692 9.46511C44.1352 9.65235 44.1218 9.85973 44.1218 10.0781H45.5218ZM45.5418 9.68165C45.5684 9.6433 45.57 9.65197 45.5387 9.67453C45.5019 9.70112 45.4159 9.74834 45.2915 9.74834V8.34834C44.8239 8.34834 44.5329 8.67951 44.3908 8.88476L45.5418 9.68165ZM45.2915 9.74834C45.1916 9.74834 45.0464 9.7119 44.9275 9.593C44.8247 9.49021 44.8043 9.38746 44.8015 9.37229L46.1789 9.12185C46.1521 8.97419 46.0865 8.77208 45.9175 8.60305C45.7323 8.4179 45.4998 8.34834 45.2915 8.34834V9.74834ZM45.699 9.91521C46.2123 9.7548 46.9141 9.31017 47.7504 8.68887L46.9156 7.56503C46.0657 8.19634 45.539 8.49845 45.2814 8.57893L45.699 9.91521ZM47.7517 8.6879C48.63 8.0323 49.4312 7.34946 50.1542 6.63891L49.1729 5.64039C48.4988 6.30288 47.7463 6.94491 46.9143 7.56601L47.7517 8.6879ZM50.1542 6.63891C50.5101 6.28917 50.7931 5.98993 50.9916 5.74693C51.09 5.62646 51.1805 5.50432 51.2499 5.3858C51.3032 5.29483 51.4114 5.09794 51.4114 4.85693H50.0114C50.0114 4.70024 50.076 4.62003 50.042 4.6781C50.0241 4.70863 49.9836 4.76791 49.9074 4.86123C49.7566 5.04579 49.5156 5.3036 49.1729 5.64039L50.1542 6.63891ZM51.4114 4.85693C51.4114 4.62175 51.3348 4.3297 51.0783 4.11593C50.8462 3.92254 50.5746 3.88594 50.3862 3.88594V5.28594C50.4147 5.28594 50.3057 5.2945 50.182 5.19144C50.0339 5.06801 50.0114 4.91146 50.0114 4.85693H51.4114ZM50.3862 3.88594C50.0445 3.88594 49.6603 3.99953 49.2771 4.1528L49.7971 5.45267C50.1366 5.31687 50.3185 5.28594 50.3862 5.28594V3.88594ZM49.2771 4.1528C48.8255 4.33346 48.2828 4.68167 47.6682 5.14874L48.5154 6.26337C49.1052 5.81508 49.5261 5.56107 49.7971 5.45267L49.2771 4.1528ZM47.6754 5.14337C47.036 5.61655 46.3579 6.22094 45.6414 6.9497L46.6398 7.93116C47.3205 7.2387 47.9432 6.68684 48.5082 6.26874L47.6754 5.14337ZM45.6457 6.94545C43.9145 8.67665 42.0067 11.1087 39.9222 14.2235L41.0856 15.0021C43.1443 11.9261 44.9944 9.5766 46.6356 7.9354L45.6457 6.94545ZM39.9277 14.2154C39.4415 14.9204 38.7576 15.9432 37.8775 17.2814L39.0473 18.0507C39.9257 16.715 40.6028 15.7023 41.0802 15.0102L39.9277 14.2154ZM37.8788 17.2795C36.0835 19.9905 34.8135 21.8258 34.0599 22.803L35.1686 23.6579C35.9567 22.6358 37.2521 20.7614 39.046 18.0525L37.8788 17.2795ZM34.4361 23.9074C40.6143 25.5333 45.1072 26.3694 47.8569 26.3694V24.9694C45.3072 24.9694 40.9717 24.1796 34.7924 22.5535L34.4361 23.9074ZM47.8569 26.3694C49.1009 26.3694 50.1401 26.219 50.8153 25.7909L50.0656 24.6086C49.7531 24.8067 49.07 24.9694 47.8569 24.9694V26.3694ZM50.8006 25.8C50.8387 25.7771 50.8707 25.7588 50.8972 25.7445C50.9241 25.73 50.9425 25.7211 50.9535 25.7161C50.9588 25.7137 50.961 25.7129 50.9605 25.7131C50.9601 25.7132 50.9552 25.7151 50.9464 25.7178C50.938 25.7203 50.9222 25.7247 50.9004 25.7286C50.8792 25.7324 50.8452 25.7371 50.8018 25.7371V24.3371C50.6105 24.3371 50.447 24.4088 50.379 24.4394C50.2836 24.4824 50.1821 24.5384 50.0803 24.5995L50.8006 25.8ZM50.8018 25.7371C50.7222 25.7371 50.6185 25.7206 50.5119 25.6638C50.4035 25.606 50.326 25.5244 50.2759 25.4442C50.1883 25.3041 50.1921 25.1837 50.1921 25.1816H51.5921C51.5921 25.0832 51.5808 24.8905 51.4631 24.7022C51.3111 24.4591 51.0557 24.3371 50.8018 24.3371V25.7371ZM50.1921 25.1816C50.1921 25.142 50.1974 25.1163 50.199 25.1093C50.2008 25.1015 50.2009 25.1033 50.196 25.1165C50.1856 25.1443 50.1628 25.1948 50.1194 25.2721L51.3396 25.9584C51.449 25.7639 51.5921 25.4776 51.5921 25.1816H50.1921ZM50.1194 25.2721C50.0302 25.4307 49.7796 25.8118 49.341 26.4453L50.492 27.2422C50.9206 26.6231 51.212 26.1852 51.3396 25.9584L50.1194 25.2721ZM49.3358 26.4529C49.1322 26.7554 48.9638 26.9831 48.8291 27.1437C48.6816 27.3196 48.6157 27.3643 48.6221 27.3605L49.332 28.5672C49.5432 28.443 49.7362 28.2408 49.9018 28.0433C50.0803 27.8305 50.2793 27.5584 50.4972 27.2346L49.3358 26.4529ZM48.6205 27.3615C48.2037 27.6081 47.3638 27.7878 45.96 27.7878V29.1878C47.3986 29.1878 48.57 29.0182 49.3336 28.5663L48.6205 27.3615ZM45.96 27.7878C44.5847 27.7878 43.2726 27.6879 42.0229 27.4893L41.8032 28.872C43.1311 29.083 44.5169 29.1878 45.96 29.1878V27.7878ZM42.0239 27.4895C40.7564 27.2862 39.7476 27.091 38.991 26.9048L38.6564 28.2642C39.4656 28.4634 40.5164 28.6656 41.8022 28.8718L42.0239 27.4895ZM39.0008 26.9073C38.2269 26.7048 37.0716 26.3817 35.5313 25.9364L35.1425 27.2814C36.6855 27.7274 37.8548 28.0546 38.6466 28.2617L39.0008 26.9073ZM35.5327 25.9368C34.0042 25.4915 32.9932 25.2009 32.5054 25.0668L32.1342 26.4166C32.61 26.5475 33.6104 26.835 35.1411 27.2809L35.5327 25.9368ZM25.7256 23.9396C24.9233 23.9396 24.2654 23.9858 23.7894 24.0985C23.5557 24.1538 23.307 24.2381 23.1016 24.3839C22.8785 24.5422 22.6589 24.8144 22.6589 25.1997H24.0589C24.0589 25.3984 23.9378 25.5071 23.912 25.5255C23.9038 25.5313 23.951 25.4989 24.1118 25.4608C24.4246 25.3868 24.9501 25.3396 25.7256 25.3396V23.9396ZM22.6589 25.1997C22.6589 25.5114 22.8095 25.7514 22.9749 25.9093C23.1298 26.0572 23.3184 26.1562 23.4913 26.227L24.0214 24.9312C23.9794 24.9141 23.9531 24.9003 23.9386 24.8918C23.9235 24.8829 23.9276 24.8833 23.9416 24.8966C23.9559 24.9103 23.9859 24.9427 24.0126 24.9973C24.0407 25.0548 24.0589 25.1246 24.0589 25.1997H22.6589ZM23.5013 26.231C23.8774 26.3781 24.2927 26.4417 24.7319 26.4417V25.0417C24.4244 25.0417 24.1894 24.9969 24.0114 24.9272L23.5013 26.231ZM24.7319 26.4417C26.0292 26.4417 27.2735 26.0991 28.4555 25.4293L27.7652 24.2113C26.7793 24.77 25.7712 25.0417 24.7319 25.0417V26.4417ZM28.2005 24.1261C27.2543 24.0033 26.4276 23.9396 25.7256 23.9396V25.3396C26.3484 25.3396 27.1116 25.3965 28.0202 25.5145L28.2005 24.1261ZM77.5039 4.604L77.0362 5.12486L77.0415 5.1295L77.5039 4.604ZM77.9194 8.92188L78.5873 9.13155L78.588 9.12935L77.9194 8.92188ZM76.5464 12.2461L75.9203 11.933L75.919 11.9356L76.5464 12.2461ZM74.4146 15.8955L73.8321 15.5072L73.8313 15.5085L74.4146 15.8955ZM71.6865 19.563L71.1474 19.1165L71.147 19.117L71.6865 19.563ZM68.4526 22.9414L68.923 23.4598L68.9232 23.4596L68.4526 22.9414ZM64.8936 25.7236L64.508 25.1394L64.5077 25.1396L64.8936 25.7236ZM54.8848 27.6387L54.4917 28.2179L54.8848 27.6387ZM53.313 26.2837L52.7758 26.7324L52.7764 26.7332L53.313 26.2837ZM53.8188 15.6426L53.1909 15.3332L53.1897 15.3357L53.8188 15.6426ZM58.7329 8.72314L58.2269 8.23948L58.2268 8.23954L58.7329 8.72314ZM65.7246 3.37549L66.056 3.9921L66.0582 3.99089L65.7246 3.37549ZM74.7939 2.97803L75.3444 3.4105L75.3516 3.40136L75.3584 3.39198L74.7939 2.97803ZM74.4146 3.53809L75.0081 3.90909L75.0131 3.90111L75.0179 3.893L74.4146 3.53809ZM74.1074 3.95361L73.6124 3.45864L71.8499 5.22116L74.2723 4.63391L74.1074 3.95361ZM68.9224 12.1558H69.6224V12.076L69.6044 11.9984L68.9224 12.1558ZM67.6216 11.6499L67.1007 12.1176L67.1056 12.1229L67.6216 11.6499ZM68.6875 7.00684L68.2074 6.49738L68.205 6.49971L68.6875 7.00684ZM72.8608 4.31494L73.1217 4.96452L72.8209 3.61608L72.8608 4.31494ZM61.1357 11.3066L61.6584 11.7723L61.6598 11.7707L61.1357 11.3066ZM57.0708 17.1963L56.4462 16.8803L56.4447 16.8832L57.0708 17.1963ZM56.0591 24.2061L55.4633 24.5736L55.4669 24.5794L56.0591 24.2061ZM64.3154 21.8936L64.7653 22.4299L64.7678 22.4277L64.3154 21.8936ZM73.3486 11.0176L73.9636 11.352L73.9654 11.3486L73.3486 11.0176ZM72.3188 8.19922L72.7177 8.7745L72.7228 8.77088L72.3188 8.19922ZM68.8682 11.9209H68.1682V12.0006L68.1861 12.0783L68.8682 11.9209ZM75.6611 4.50908C76.0877 4.50908 76.5421 4.68111 77.0362 5.12484L77.9716 4.08317C77.2854 3.46701 76.5113 3.10908 75.6611 3.10908V4.50908ZM77.0415 5.1295C77.5308 5.56016 77.7072 5.9711 77.7072 6.37451H79.1072C79.1072 5.47715 78.6814 4.70775 77.9663 4.0785L77.0415 5.1295ZM77.7072 6.37451C77.7072 6.92267 77.5675 7.69435 77.2509 8.7144L78.588 9.12935C78.9218 8.0537 79.1072 7.12714 79.1072 6.37451H77.7072ZM77.2516 8.7122C76.9396 9.70589 76.4972 10.7792 75.9203 11.933L77.1725 12.5591C77.7759 11.3523 78.2489 10.2095 78.5873 9.13155L77.2516 8.7122ZM75.919 11.9356C75.3561 13.0731 74.6612 14.2635 73.8321 15.5072L74.997 16.2838C75.8541 14.9982 76.5804 13.7557 77.1738 12.5566L75.919 11.9356ZM73.8313 15.5085C73.0143 16.7399 72.1198 17.9426 71.1474 19.1165L72.2256 20.0095C73.2286 18.7986 74.1527 17.5563 74.9978 16.2825L73.8313 15.5085ZM71.147 19.117C70.1935 20.2706 69.1387 21.3728 67.982 22.4232L68.9232 23.4596C70.1272 22.3662 71.2284 21.216 72.2261 20.0089L71.147 19.117ZM67.9823 22.423C66.8381 23.461 65.6799 24.3659 64.508 25.1394L65.2791 26.3079C66.5161 25.4915 67.7306 24.5416 68.923 23.4598L67.9823 22.423ZM64.5077 25.1396C61.9673 26.8177 59.534 27.6252 57.1973 27.6252V29.0252C59.871 29.0252 62.5685 28.0984 65.2794 26.3077L64.5077 25.1396ZM57.1973 27.6252C56.4608 27.6252 55.8288 27.4333 55.2778 27.0594L54.4917 28.2179C55.2897 28.7594 56.1994 29.0252 57.1973 29.0252V27.6252ZM55.2778 27.0594C54.6372 26.6247 54.1684 26.2147 53.8496 25.8341L52.7764 26.7332C53.2043 27.244 53.7834 27.7372 54.4917 28.2179L55.2778 27.0594ZM53.8502 25.8349C53.1323 24.9755 52.7303 23.7389 52.7303 22.0381H51.3303C51.3303 23.9506 51.7834 25.5444 52.7758 26.7324L53.8502 25.8349ZM52.7303 22.0381C52.7303 20.3653 53.2811 18.3422 54.448 15.9494L53.1897 15.3357C51.9718 17.833 51.3303 20.0735 51.3303 22.0381H52.7303ZM54.4468 15.9519C55.6167 13.5769 57.2117 11.3283 59.239 9.20674L58.2268 8.23954C56.1108 10.4539 54.4298 12.8182 53.1909 15.3332L54.4468 15.9519ZM59.2389 9.20681C61.2733 7.07837 63.5453 5.34127 66.056 3.9921L65.3933 2.75888C62.7489 4.17989 60.3598 6.00789 58.2269 8.23948L59.2389 9.20681ZM66.0582 3.99089C68.5595 2.63506 70.8962 1.97979 73.0776 1.97979V0.579785C70.61 0.579785 68.0447 1.32164 65.391 2.76008L66.0582 3.99089ZM73.0776 1.97979C73.4266 1.97979 73.753 2.05684 74.0654 2.21301L74.6915 0.960815C74.1848 0.707481 73.644 0.579785 73.0776 0.579785V1.97979ZM74.0654 2.21301C74.2205 2.29059 74.2854 2.3505 74.3058 2.3745C74.3139 2.38407 74.3095 2.38147 74.3033 2.36594C74.2967 2.34918 74.2927 2.32889 74.2927 2.30957H75.6927C75.6927 1.62263 75.1725 1.20134 74.6915 0.960815L74.0654 2.21301ZM74.2927 2.30957C74.2927 2.45369 74.2587 2.52426 74.2295 2.56407L75.3584 3.39198C75.5942 3.07047 75.6927 2.6954 75.6927 2.30957H74.2927ZM74.2435 2.54555C74.0897 2.74128 73.9459 2.95425 73.8112 3.18317L75.0179 3.893C75.1241 3.71241 75.2332 3.55202 75.3444 3.4105L74.2435 2.54555ZM73.821 3.16709C73.7082 3.34754 73.6394 3.43168 73.6124 3.45864L74.6024 4.44859C74.7441 4.30692 74.88 4.11405 75.0081 3.90909L73.821 3.16709ZM74.2723 4.63391C74.5945 4.5558 75.0511 4.50908 75.6611 4.50908V3.10908C74.9945 3.10908 74.4152 3.15872 73.9425 3.27332L74.2723 4.63391ZM68.2224 12.1558C68.2224 12.216 68.2079 12.1364 68.2857 12.0253C68.3304 11.9614 68.396 11.9021 68.4791 11.8625C68.5587 11.8246 68.6284 11.8171 68.6694 11.8171V13.2171C68.9434 13.2171 69.2387 13.1052 69.4326 12.8282C69.5946 12.5967 69.6224 12.3364 69.6224 12.1558H68.2224ZM68.6694 11.8171C68.8061 11.8171 68.8791 11.8677 68.8503 11.8517C68.8367 11.8441 68.7971 11.8188 68.7273 11.761C68.5889 11.6465 68.3941 11.4567 68.1376 11.1769L67.1056 12.1229C67.379 12.4212 67.6238 12.6651 67.8347 12.8396C67.9396 12.9264 68.052 13.0094 68.1679 13.0741C68.2686 13.1303 68.4485 13.2171 68.6694 13.2171V11.8171ZM68.1424 11.1822C67.6295 10.611 67.5267 10.2879 67.5267 10.1685H66.1267C66.1267 10.8439 66.5537 11.5084 67.1007 12.1176L68.1424 11.1822ZM67.5267 10.1685C67.5267 9.54218 67.9615 8.66384 69.17 7.51397L68.205 6.49971C66.9324 7.71051 66.1267 8.93991 66.1267 10.1685H67.5267ZM69.1676 7.51629C70.3593 6.39326 71.6768 5.54475 73.1217 4.96452L72.6 3.66536C70.9856 4.31365 69.5209 5.25974 68.2074 6.49738L69.1676 7.51629ZM72.8209 3.61608C70.9768 3.72146 68.9069 4.49794 66.6291 5.8646L67.3494 7.06509C69.528 5.75792 71.3725 5.10113 72.9008 5.0138L72.8209 3.61608ZM66.6291 5.8646C64.3414 7.23721 62.3345 8.89662 60.6116 10.8426L61.6598 11.7707C63.2853 9.93476 65.1807 8.3663 67.3494 7.06509L66.6291 5.8646ZM60.6131 10.841C58.9025 12.7608 57.5119 14.7737 56.4462 16.8803L57.6954 17.5123C58.7014 15.5238 60.0207 13.6103 61.6584 11.7723L60.6131 10.841ZM56.4447 16.8832C55.4051 18.9625 54.8352 20.7422 54.8352 22.1826H56.2352C56.2352 21.0696 56.689 19.5252 57.6969 17.5093L56.4447 16.8832ZM54.8352 22.1826C54.8352 23.072 55.0346 23.8788 55.4634 24.5736L56.6548 23.8385C56.385 23.4011 56.2352 22.8589 56.2352 22.1826H54.8352ZM55.4669 24.5794C55.9793 25.3921 56.8318 25.7371 57.8296 25.7371V24.3371C57.1653 24.3371 56.8374 24.1281 56.6512 23.8327L55.4669 24.5794ZM57.8296 25.7371C58.8226 25.7371 59.9447 25.4 61.1727 24.7986L60.5568 23.5413C59.4241 24.0961 58.5228 24.3371 57.8296 24.3371V25.7371ZM61.1727 24.7986C62.4092 24.1929 63.6065 23.4017 64.7653 22.4299L63.8656 21.3572C62.7841 22.2643 61.681 22.9907 60.5568 23.5413L61.1727 24.7986ZM64.7678 22.4277C68.6806 19.1141 71.7498 15.4228 73.9636 11.352L72.7337 10.6832C70.6115 14.5856 67.6586 18.145 63.863 21.3594L64.7678 22.4277ZM73.9654 11.3486C74.4122 10.5162 74.7563 9.79601 74.9903 9.19332C75.2177 8.60778 75.3675 8.0686 75.3675 7.62109H73.9675C73.9675 7.79989 73.8975 8.13994 73.6852 8.68656C73.4796 9.21603 73.1643 9.88097 72.7319 10.6865L73.9654 11.3486ZM75.3675 7.62109C75.3675 7.43896 75.3411 7.17994 75.1867 6.94826C74.9988 6.66648 74.7028 6.5417 74.4146 6.5417V7.9417C74.3688 7.9417 74.2947 7.9328 74.2122 7.89151C74.1267 7.84877 74.0631 7.78673 74.0218 7.72484C73.9517 7.61962 73.9675 7.5503 73.9675 7.62109H75.3675ZM74.4146 6.5417C74.027 6.5417 73.6245 6.66387 73.2294 6.84439C72.8274 7.02806 72.388 7.29319 71.9149 7.62755L72.7228 8.77088C73.153 8.4669 73.5146 8.25327 73.8112 8.11777C74.1146 7.97911 74.3083 7.9417 74.4146 7.9417V6.5417ZM71.92 7.62396C70.9771 8.27769 70.1367 9.00367 69.401 9.80274L70.431 10.751C71.0925 10.0325 71.8539 9.37335 72.7177 8.77448L71.92 7.62396ZM69.401 9.80274C69.038 10.1971 68.7456 10.5579 68.5398 10.8807C68.3492 11.1798 68.1682 11.5437 68.1682 11.9209H69.5682C69.5682 11.9608 69.5618 11.8821 69.7204 11.6332C69.8639 11.408 70.0955 11.1154 70.431 10.751L69.401 9.80274ZM68.1861 12.0783L68.2403 12.3132L69.6044 11.9984L69.5502 11.7635L68.1861 12.0783ZM99.2739 10.2407L98.8815 9.66108L98.8786 9.66301L99.2739 10.2407ZM95.8594 12.1016L95.597 11.4526L96.0807 12.7656L95.8594 12.1016ZM98.4067 12.4629L97.8836 12.9279L97.8972 12.9433L97.9118 12.9579L98.4067 12.4629ZM98.0273 13.4204L97.4995 12.9607L97.4978 12.9626L98.0273 13.4204ZM88.7051 25.0732L88.1409 24.6589L89.136 25.6249L88.7051 25.0732ZM91.7764 22.4897L91.3074 21.97L91.3027 21.9743L91.7764 22.4897ZM94.4863 22.6704L94.0595 22.1156L94.0421 22.129L94.0256 22.1434L94.4863 22.6704ZM84.6401 30.3667L84.2235 29.8042L84.1654 29.8472L84.1173 29.9012L84.6401 30.3667ZM78.7144 36.6538L79.2145 37.1436L79.2202 37.1376L78.7144 36.6538ZM75.6069 34.8472L76.1726 35.2595L76.1792 35.2505L76.1854 35.2413L75.6069 34.8472ZM81.0811 29.8789L81.5058 30.4353L81.558 30.3955L81.6018 30.3467L81.0811 29.8789ZM84.3872 26.2656L84.9019 26.7401L84.9029 26.739L84.3872 26.2656ZM89.7529 20.0508L90.3342 20.4408L89.2712 19.5429L89.7529 20.0508ZM86.0312 23.3389L85.6087 22.7808L86.0312 23.3389ZM83.6826 25.001L83.3011 24.414L83.2966 24.417L83.6826 25.001ZM81.7134 26.1392L82.016 26.7704L82.0163 26.7702L81.7134 26.1392ZM75.4805 26.1572L76.0019 25.6902L75.9976 25.6855L75.4805 26.1572ZM75.6431 18.7319L75.0068 18.4401L75.6431 18.7319ZM78.5879 13.9985L79.137 14.4327L79.1386 14.4306L78.5879 13.9985ZM82.96 9.42773L82.4979 8.90186L82.96 9.42773ZM93.9624 2.8335L94.185 3.49719L94.1885 3.49597L93.9624 2.8335ZM92.9146 9.31934L93.5937 9.48911L93.6146 9.40551V9.31934H92.9146ZM92.8242 9.68066L92.1451 9.51089L92.1242 9.59449V9.68066H92.8242ZM96.2568 8.92188L95.9164 8.31024L96.2568 8.92188ZM94.9199 5.21826L94.6648 4.56639L94.6632 4.56702L94.9199 5.21826ZM90.0781 7.74756L90.4623 8.33273L90.0781 7.74756ZM85.417 11.3247L85.8777 11.8518L85.88 11.8497L85.417 11.3247ZM81.4062 15.3535L80.8724 14.9007L80.8721 14.9011L81.4062 15.3535ZM77.9194 23.5557L77.3565 23.9717L77.3622 23.9795L77.3682 23.9871L77.9194 23.5557ZM84.9653 21.0625L84.5686 20.4858L84.5674 20.4866L84.9653 21.0625ZM94.667 13.1313L95.1402 13.6471L95.1513 13.637L95.162 13.6263L94.667 13.1313ZM94.9199 12.8604L95.4379 13.3312L95.4506 13.3172L95.4626 13.3025L94.9199 12.8604ZM95.7329 12.1558L96.0567 12.7764L95.4716 11.5064L95.7329 12.1558ZM91.7764 9.86133L91.2814 9.36635L91.7764 9.86133ZM102.657 5.54346C102.657 5.8841 102.422 6.45625 101.663 7.29655L102.702 8.2347C103.509 7.34062 104.057 6.43133 104.057 5.54346H102.657ZM101.663 7.29655C100.924 8.11471 99.9998 8.90388 98.8815 9.66109L99.6664 10.8204C100.861 10.0118 101.875 9.15091 102.702 8.2347L101.663 7.29655ZM98.8786 9.66301C97.7706 10.4212 96.6767 11.0161 95.597 11.4526L96.1217 12.7505C97.3064 12.2716 98.4889 11.626 99.6692 10.8184L98.8786 9.66301ZM96.0807 12.7656C96.2627 12.705 96.447 12.6751 96.6362 12.6751V11.2751C96.2955 11.2751 95.9619 11.3295 95.638 11.4375L96.0807 12.7656ZM96.6362 12.6751C97.0449 12.6751 97.3475 12.713 97.5614 12.7719C97.777 12.8313 97.8584 12.8997 97.8836 12.9279L98.9299 11.9978C98.666 11.7009 98.3078 11.5254 97.9332 11.4222C97.5569 11.3185 97.1189 11.2751 96.6362 11.2751V12.6751ZM97.9118 12.9579C97.8921 12.9382 97.8654 12.9046 97.8446 12.8561C97.8235 12.8067 97.8151 12.7576 97.8151 12.7158H99.2151C99.2151 12.4217 99.0964 12.1626 98.9017 11.9679L97.9118 12.9579ZM97.8151 12.7158C97.8151 12.6347 97.8313 12.5758 97.839 12.551C97.8476 12.5232 97.8555 12.5071 97.8563 12.5056C97.8572 12.5037 97.848 12.522 97.8177 12.5658C97.758 12.652 97.6554 12.7816 97.4995 12.9607L98.5552 13.8802C98.7244 13.6858 98.8658 13.5113 98.9687 13.3627C99.0197 13.289 99.0714 13.2073 99.113 13.1225C99.145 13.0574 99.2151 12.9056 99.2151 12.7158H97.8151ZM97.4978 12.9626C94.1022 16.8899 90.9831 20.7886 88.1409 24.6589L89.2693 25.4876C92.0879 21.6495 95.1836 17.7797 98.5569 13.8782L97.4978 12.9626ZM89.136 25.6249C90.304 24.7124 91.3425 23.8391 92.25 23.0052L91.3027 21.9743C90.4277 22.7784 89.4186 23.6275 88.2741 24.5216L89.136 25.6249ZM92.2453 23.0094C92.6013 22.6882 93.0327 22.5213 93.583 22.5213V21.1213C92.7121 21.1213 91.9391 21.4 91.3074 21.9701L92.2453 23.0094ZM93.583 22.5213C93.8186 22.5213 93.9748 22.5369 94.0686 22.5564C94.1144 22.5659 94.1295 22.5731 94.1246 22.5709C94.121 22.5693 94.075 22.5485 94.0226 22.4909L95.0585 21.5491C94.8457 21.3151 94.5538 21.2272 94.3531 21.1856C94.1277 21.1388 93.8654 21.1213 93.583 21.1213V22.5213ZM94.0226 22.4909C94.057 22.5288 94.0623 22.5421 94.0566 22.5312C94.0511 22.5208 94.0212 22.4608 94.0212 22.3633H95.4212C95.4212 21.9947 95.2068 21.7123 95.0585 21.5491L94.0226 22.4909ZM94.0212 22.3633C94.0212 22.2747 94.0419 22.2048 94.061 22.1592C94.0796 22.1148 94.0991 22.0877 94.1064 22.0781C94.1187 22.062 94.1121 22.0751 94.0595 22.1156L94.9131 23.2252C95.0171 23.1453 95.128 23.0469 95.2185 22.9285C95.3044 22.8163 95.4212 22.6214 95.4212 22.3633H94.0212ZM94.0256 22.1434C92.0368 23.8821 88.7739 26.4335 84.2235 29.8042L85.0568 30.9292C89.6118 27.5551 92.9131 24.9756 94.9471 23.1974L94.0256 22.1434ZM84.1173 29.9012C83.3446 30.7691 81.3792 32.8546 78.2085 36.17L79.2202 37.1376C82.3848 33.8286 84.3699 31.7228 85.1629 30.8322L84.1173 29.9012ZM78.2142 36.1641C77.7544 36.6337 77.3003 36.821 76.8354 36.821V38.221C77.7436 38.221 78.5422 37.8302 79.2145 37.1435L78.2142 36.1641ZM76.8354 36.821C76.2092 36.821 75.8513 36.7296 75.6728 36.6298C75.5941 36.5859 75.5669 36.5497 75.5565 36.5322C75.5466 36.5156 75.5301 36.4799 75.5301 36.4009H74.1301C74.1301 36.6952 74.1971 36.9862 74.3543 37.2497C74.511 37.5122 74.7345 37.7094 74.9901 37.8521C75.48 38.1257 76.1248 38.221 76.8354 38.221V36.821ZM75.5301 36.4009C75.5301 36.4015 75.5372 36.308 75.6504 36.0816C75.7561 35.8702 75.9261 35.5977 76.1726 35.2595L75.0412 34.4349C74.7699 34.8072 74.5515 35.149 74.3982 35.4555C74.2525 35.747 74.1301 36.0751 74.1301 36.4009H75.5301ZM76.1854 35.2413C76.8592 34.2524 78.593 32.6592 81.5058 30.4353L80.6563 29.3225C77.7638 31.5309 75.8481 33.2499 75.0284 34.453L76.1854 35.2413ZM81.6018 30.3467C82.2368 29.6398 83.3361 28.4384 84.9018 26.7401L83.8726 25.7911C82.3068 27.4894 81.202 28.6968 80.5603 29.4111L81.6018 30.3467ZM84.9029 26.739C87.8524 23.5257 89.6836 21.4103 90.3342 20.4408L89.1717 19.6607C88.5937 20.522 86.8478 22.5498 83.8715 25.7923L84.9029 26.739ZM89.2712 19.5429C87.6359 21.0941 86.4189 22.1674 85.6087 22.7808L86.4538 23.8969C87.3298 23.2337 88.594 22.1149 90.2347 20.5587L89.2712 19.5429ZM85.6087 22.7808C84.7761 23.4112 84.007 23.9552 83.3011 24.4141L84.0641 25.5879C84.8035 25.1073 85.6002 24.5432 86.4538 23.8969L85.6087 22.7808ZM83.2966 24.417C82.6057 24.8737 81.9774 25.236 81.4105 25.5081L82.0163 26.7702C82.6538 26.4642 83.3383 26.0677 84.0686 25.5849L83.2966 24.417ZM81.4108 25.5079C80.0004 26.184 78.86 26.4889 77.9671 26.4915C77.1019 26.494 76.4724 26.2156 76.0019 25.6902L74.959 26.6242C75.7291 27.484 76.7587 27.895 77.9711 27.8915C79.1558 27.8881 80.5117 27.4914 82.016 26.7704L81.4108 25.5079ZM75.9976 25.6855C75.5307 25.1737 75.241 24.3643 75.241 23.1401H73.841C73.841 24.5657 74.1776 25.7677 74.9633 26.629L75.9976 25.6855ZM75.241 23.1401C75.241 21.9306 75.5739 20.5619 76.2793 19.0238L75.0068 18.4401C74.2429 20.1058 73.841 21.6758 73.841 23.1401H75.241ZM76.2793 19.0238C76.9881 17.4784 77.9389 15.9479 79.137 14.4327L78.0388 13.5644C76.7799 15.1566 75.7674 16.7817 75.0068 18.4401L76.2793 19.0238ZM79.1386 14.4306C80.3374 12.9028 81.7641 11.4101 83.422 9.95361L82.4979 8.90186C80.7834 10.4082 79.2954 11.9628 78.0372 13.5664L79.1386 14.4306ZM83.422 9.95361C85.0801 8.49686 86.8009 7.21985 88.5844 6.12142L87.8502 4.92937C85.9963 6.07117 84.2123 7.39571 82.4979 8.90186L83.422 9.95361ZM88.5844 6.12142C90.3579 5.02909 92.2245 4.15457 94.185 3.49718L93.7399 2.16982C91.6775 2.86138 89.714 3.78145 87.8502 4.92937L88.5844 6.12142ZM94.1885 3.49597C96.1407 2.82965 97.9609 2.50371 99.6533 2.50371V1.10371C97.7807 1.10371 95.8069 1.46429 93.7363 2.17102L94.1885 3.49597ZM99.6533 2.50371C100.188 2.50371 100.682 2.59255 101.14 2.76567L101.635 1.45601C101.009 1.21963 100.347 1.10371 99.6533 1.10371V2.50371ZM101.14 2.76567C101.651 2.95876 101.926 3.1329 102.049 3.25621L103.039 2.26626C102.705 1.93188 102.208 1.67243 101.635 1.45601L101.14 2.76567ZM102.049 3.25621C102.393 3.59976 102.657 4.29266 102.657 5.54346H104.057C104.057 4.1686 103.779 3.00669 103.039 2.26626L102.049 3.25621ZM92.2355 9.14956L92.1451 9.51089L93.5033 9.85044L93.5937 9.48911L92.2355 9.14956ZM92.1242 9.68066C92.1242 9.9577 92.2292 10.2649 92.512 10.4739C92.7552 10.6537 93.0355 10.6878 93.2397 10.6878V9.28779C93.167 9.28779 93.2395 9.27071 93.3442 9.34809C93.4036 9.39203 93.4552 9.45391 93.4883 9.52726C93.5196 9.59663 93.5242 9.65356 93.5242 9.68066H92.1242ZM93.2397 10.6878C94.1625 10.6878 95.3005 10.2553 96.5973 9.53351L95.9164 8.31024C94.6598 9.00965 93.7864 9.28779 93.2397 9.28779V10.6878ZM96.5973 9.53351C97.909 8.80341 98.9915 8.04149 99.8293 7.24237L98.863 6.22931C98.1351 6.92368 97.1581 7.61912 95.9164 8.31024L96.5973 9.53351ZM99.8293 7.24237C100.245 6.84619 100.582 6.45997 100.819 6.08415C101.053 5.71302 101.221 5.30356 101.221 4.875H99.8205C99.8205 4.94025 99.7922 5.08784 99.6349 5.33699C99.4807 5.58146 99.2306 5.87874 98.863 6.22931L99.8293 7.24237ZM101.221 4.875C101.221 4.40639 100.986 4.01806 100.585 3.79118C100.241 3.59742 99.8167 3.54268 99.4004 3.54268V4.94268C99.5562 4.94268 99.6744 4.95383 99.761 4.97012C99.8489 4.98667 99.8877 5.00544 99.8964 5.01033C99.9008 5.01286 99.8733 4.9976 99.8477 4.95428C99.8359 4.93427 99.8285 4.91476 99.8244 4.89853C99.8204 4.88283 99.8205 4.87406 99.8205 4.875H101.221ZM99.4004 3.54268C97.9637 3.54268 96.3817 3.89456 94.6648 4.56639L95.175 5.87013C96.7823 5.24118 98.1873 4.94268 99.4004 4.94268V3.54268ZM94.6632 4.56702C92.9658 5.2361 91.3093 6.10192 89.694 7.16239L90.4623 8.33273C92.0025 7.32158 93.5739 6.50121 95.1766 5.8695L94.6632 4.56702ZM89.694 7.16239C88.0864 8.21775 86.5065 9.43058 84.954 10.7997L85.88 11.8497C87.3868 10.5209 88.9143 9.34899 90.4623 8.33273L89.694 7.16239ZM84.9563 10.7976C83.4043 12.1542 82.0422 13.5217 80.8724 14.9007L81.9401 15.8063C83.0588 14.4875 84.3705 13.1691 85.8777 11.8518L84.9563 10.7976ZM80.8721 14.9011C79.7146 16.2679 78.7702 17.6202 78.0448 18.9584L79.2756 19.6256C79.9473 18.3864 80.8335 17.113 81.9404 15.8059L80.8721 14.9011ZM78.0448 18.9584C77.3206 20.2943 76.9123 21.5164 76.9123 22.5981H78.3123C78.3123 21.8491 78.6026 20.8672 79.2756 19.6256L78.0448 18.9584ZM76.9123 22.5981C76.9123 23.1014 77.0582 23.5681 77.3565 23.9717L78.4824 23.1396C78.3712 22.9892 78.3123 22.8175 78.3123 22.5981H76.9123ZM77.3682 23.9871C77.7404 24.4627 78.2739 24.6712 78.8589 24.6712V23.2712C78.6249 23.2712 78.5321 23.2027 78.4707 23.1242L77.3682 23.9871ZM78.8589 24.6712C79.6475 24.6712 80.5857 24.3758 81.635 23.876C82.6989 23.3692 83.9433 22.6196 85.3633 21.6384L84.5674 20.4866C83.1811 21.4445 82.0045 22.1493 81.033 22.6121C80.0467 23.0818 79.3349 23.2712 78.8589 23.2712V24.6712ZM85.3621 21.6392C88.2163 19.6754 91.4764 17.0087 95.1402 13.6471L94.1938 12.6156C90.5587 15.9506 87.3511 18.5713 84.5686 20.4858L85.3621 21.6392ZM95.162 13.6263C95.2235 13.5648 95.3182 13.4629 95.4379 13.3312L94.402 12.3895C94.2808 12.5228 94.2069 12.6015 94.172 12.6364L95.162 13.6263ZM95.4626 13.3025C95.6869 13.0272 95.8876 12.8646 96.0567 12.7764L95.4091 11.5352C95.0242 11.736 94.6829 12.0431 94.3773 12.4182L95.4626 13.3025ZM95.4716 11.5064C94.5171 11.8905 93.8073 12.052 93.312 12.052V13.452C94.0694 13.452 94.9735 13.2159 95.9942 12.8051L95.4716 11.5064ZM93.312 12.052C92.7883 12.052 92.4168 11.9368 92.1505 11.7566L91.3661 12.9162C91.9188 13.2901 92.5832 13.452 93.312 13.452V12.052ZM92.1505 11.7566C91.9214 11.6017 91.844 11.4395 91.844 11.2163H90.444C90.444 11.9326 90.7762 12.5172 91.3661 12.9162L92.1505 11.7566ZM91.844 11.2163C91.844 10.9622 91.948 10.6796 92.2713 10.3563L91.2814 9.36635C90.7616 9.88615 90.444 10.5069 90.444 11.2163H91.844ZM92.2713 10.3563C92.4698 10.1578 92.618 10.03 92.7207 9.9567C92.745 9.93931 92.7643 9.92682 92.7787 9.91817C92.7858 9.9139 92.7913 9.91084 92.7952 9.90876C92.7972 9.90774 92.7986 9.90699 92.7996 9.90649C92.8006 9.90599 92.8011 9.90577 92.8011 9.90578C92.8011 9.90579 92.8005 9.90606 92.7993 9.90654C92.7982 9.90701 92.7964 9.90773 92.7939 9.90862C92.7892 9.91036 92.7813 9.91301 92.7706 9.91584C92.7502 9.92122 92.7125 9.929 92.6616 9.929V8.529C92.3382 8.529 92.0637 8.70555 91.907 8.81747C91.7146 8.9549 91.5045 9.14329 91.2814 9.36635L92.2713 10.3563ZM92.6616 9.929C92.7236 9.929 92.6893 9.93704 92.6159 9.91081C92.5756 9.89643 92.4792 9.85627 92.387 9.75744C92.28 9.64283 92.2146 9.48661 92.2146 9.31934H93.6146C93.6146 9.12195 93.5385 8.93938 93.4105 8.80219C93.2972 8.68078 93.1692 8.6218 93.0868 8.59237C92.929 8.53603 92.7683 8.529 92.6616 8.529V9.929ZM126.374 2.90576L126.361 3.60565L126.386 3.60609L126.41 3.60479L126.374 2.90576ZM127.06 2.86963V2.16963H127.042L127.023 2.1706L127.06 2.86963ZM127.747 3.14062L127.34 3.71024L127.346 3.71468L127.352 3.71898L127.747 3.14062ZM128.144 3.61035L128.827 3.76549L128.844 3.6889V3.61035H128.144ZM123.88 10.873L124.478 11.2369L124.479 11.2367L123.88 10.873ZM109.536 35.0278L108.905 34.7248L110.043 35.5096L109.536 35.0278ZM110.999 33.6367L110.554 33.096L110.548 33.1014L110.541 33.1069L110.999 33.6367ZM112.119 33.0767L112.651 32.6211L112.633 32.6007L112.614 32.5817L112.119 33.0767ZM110.927 35.0459L110.375 34.6144L110.369 34.6234L110.927 35.0459ZM109.5 36.8345L108.978 36.3671L108.971 36.376L109.5 36.8345ZM108.65 37.9727L108.06 37.5968L108.053 37.6072L108.047 37.6177L108.65 37.9727ZM108.018 38.8398L107.54 38.3281L107.532 38.3363L107.523 38.3449L108.018 38.8398ZM105.525 38.1353L104.975 38.5687L104.976 38.57L105.525 38.1353ZM110.15 26.6812L109.557 26.3097L109.556 26.3106L110.15 26.6812ZM119.635 12.2461L120.207 12.6486L119.101 11.7937L119.635 12.2461ZM104.531 26.9521L104.161 26.3582L104.158 26.3598L104.531 26.9521ZM100.159 27.8374L99.8018 28.4394L99.8099 28.444L100.159 27.8374ZM99.3101 26.9702L98.6797 27.2745L98.6839 27.2832L98.6883 27.2918L99.3101 26.9702ZM100.213 21.2432L100.849 21.5359L100.85 21.5342L100.213 21.2432ZM103.194 15.8413L103.785 16.2166L103.787 16.2146L103.194 15.8413ZM109.156 7.06104L109.717 7.48015L108.687 6.5415L109.156 7.06104ZM104.26 9.04834L103.765 9.54331L103.786 9.5639L103.808 9.58271L104.26 9.04834ZM103.646 8.39795L103.11 8.84818L103.12 8.85979L103.13 8.87096L103.646 8.39795ZM103.447 6.57324L102.86 6.19297L102.851 6.20548L102.844 6.21833L103.447 6.57324ZM103.809 6.10352L104.304 6.59849L103.809 6.10352ZM105.109 5.59766L104.666 5.05589L104.653 5.06632L104.641 5.07735L105.109 5.59766ZM105.633 5.85059L105.831 6.52214L105.849 6.51688L105.866 6.51068L105.633 5.85059ZM106.428 5.48926L106.75 6.11074L106.759 6.10629L106.428 5.48926ZM107.332 5.00146L107.667 5.61606L107.676 5.61086L107.332 5.00146ZM108.56 4.29688L108.91 4.90306L108.92 4.89712L108.56 4.29688ZM109.789 3.57422L109.455 2.95861L109.444 2.96482L109.789 3.57422ZM111.035 2.74316L111.449 3.30765L111.451 3.30609L111.035 2.74316ZM112.264 1.91211L112.599 2.52664L112.61 2.52042L112.621 2.51378L112.264 1.91211ZM113.348 1.67725L113.093 2.32918L113.102 2.33268L113.348 1.67725ZM114.016 1.89404L113.859 2.5762L113.869 2.5785L114.016 1.89404ZM114.45 2.05664L114.09 2.65689L114.124 2.6774L114.16 2.6939L114.45 2.05664ZM114.811 2.27344L114.381 2.82598L114.393 2.83541L114.406 2.84429L114.811 2.27344ZM114.847 4.44141L114.285 4.02366L114.279 4.03316L114.847 4.44141ZM112.553 7.78369L113.131 8.1784L113.132 8.17655L112.553 7.78369ZM108.506 13.8179L107.922 13.4317L107.922 13.4325L108.506 13.8179ZM104.549 20.1953L103.943 19.846L103.941 19.8488L104.549 20.1953ZM104.062 23.5195L104.487 24.0756L104.489 24.0735L104.062 23.5195ZM116.401 11.7944L115.891 11.3152L115.891 11.3153L116.401 11.7944ZM123.664 3.68262L123.098 3.26956L123.093 3.27764L123.664 3.68262ZM124.332 3.05029L124.032 2.41768L124.026 2.42086L124.019 2.42419L124.332 3.05029ZM125.362 2.8877L125.374 2.1877H125.362V2.8877ZM126.41 3.60479L127.097 3.56866L127.023 2.1706L126.337 2.20673L126.41 3.60479ZM127.06 3.56963C127.059 3.56963 127.08 3.56927 127.128 3.58849C127.178 3.60805 127.248 3.64482 127.34 3.71024L128.153 2.57101C127.84 2.34688 127.469 2.16963 127.06 2.16963V3.56963ZM127.352 3.71898C127.403 3.75333 127.44 3.78221 127.468 3.80536C127.495 3.82893 127.508 3.84259 127.51 3.84571C127.514 3.84952 127.499 3.83381 127.483 3.79813C127.466 3.76076 127.444 3.69599 127.444 3.61035H128.844C128.844 3.30885 128.696 3.08007 128.579 2.9414C128.456 2.79581 128.3 2.67057 128.141 2.56227L127.352 3.71898ZM127.461 3.45522C127.476 3.39094 127.49 3.37975 127.431 3.49867C127.387 3.58643 127.321 3.71087 127.231 3.87524C127.05 4.20275 126.784 4.66691 126.429 5.27037C125.721 6.4761 124.673 8.22187 123.282 10.5094L124.479 11.2367C125.87 8.9474 126.923 7.19431 127.637 5.97914C127.993 5.37216 128.267 4.89535 128.457 4.5514C128.551 4.38003 128.628 4.23611 128.684 4.12289C128.725 4.04082 128.797 3.896 128.827 3.76549L127.461 3.45522ZM123.282 10.5092C114.613 24.7584 109.803 32.8534 108.905 34.7248L110.167 35.3309C111.026 33.5408 115.78 25.5327 124.478 11.2369L123.282 10.5092ZM110.043 35.5096C110.472 35.058 110.943 34.6102 111.457 34.1665L110.541 33.1069C109.995 33.5786 109.491 34.0582 109.028 34.546L110.043 35.5096ZM111.444 34.1774C111.712 33.9569 111.912 33.7987 112.048 33.6981C112.117 33.6467 112.159 33.6184 112.179 33.6059C112.191 33.599 112.183 33.6045 112.162 33.614C112.152 33.6189 112.128 33.6295 112.094 33.6398C112.067 33.6483 111.997 33.6683 111.902 33.6683V32.2683C111.729 32.2683 111.597 32.3331 111.575 32.3434C111.524 32.3668 111.479 32.3932 111.445 32.4142C111.375 32.4574 111.296 32.5126 111.215 32.5727C111.05 32.6948 110.828 32.8709 110.554 33.096L111.444 34.1774ZM111.902 33.6683C111.723 33.6683 111.628 33.5757 111.624 33.5716L112.614 32.5817C112.466 32.4331 112.226 32.2683 111.902 32.2683V33.6683ZM111.588 33.5322C111.593 33.5387 111.58 33.5254 111.565 33.4919C111.549 33.4566 111.528 33.3943 111.528 33.3115H112.928C112.928 33.0027 112.776 32.7671 112.651 32.6211L111.588 33.5322ZM111.528 33.3115C111.528 33.2049 111.561 33.1379 111.568 33.124C111.576 33.1088 111.574 33.1173 111.545 33.1504L112.585 34.0869C112.716 33.9413 112.928 33.67 112.928 33.3115H111.528ZM111.545 33.1504C111.416 33.2938 111.016 33.7962 110.376 34.6145L111.478 35.4773C112.138 34.6335 112.498 34.1844 112.585 34.0869L111.545 33.1504ZM110.369 34.6234C109.731 35.4652 109.271 36.0413 108.978 36.3672L110.021 37.3018C110.355 36.9291 110.846 36.3128 111.485 35.4684L110.369 34.6234ZM108.971 36.376C108.635 36.763 108.331 37.1699 108.06 37.5968L109.241 38.3485C109.475 37.9805 109.738 37.6286 110.028 37.2929L108.971 36.376ZM108.047 37.6177C107.815 38.0122 107.645 38.2302 107.54 38.3281L108.496 39.3516C108.752 39.1122 109.004 38.7521 109.254 38.3276L108.047 37.6177ZM107.523 38.3449C107.494 38.3736 107.466 38.3928 107.386 38.3928V39.7928C107.812 39.7928 108.205 39.6433 108.513 39.3348L107.523 38.3449ZM107.386 38.3928C106.89 38.3928 106.463 38.192 106.074 37.7005L104.976 38.57C105.598 39.3552 106.412 39.7928 107.386 39.7928V38.3928ZM106.075 37.7018C105.607 37.1082 105.484 36.7358 105.484 36.5454H104.084C104.084 37.2222 104.456 37.9097 104.975 38.5687L106.075 37.7018ZM105.484 36.5454C105.484 36.5511 105.484 36.5357 105.492 36.4924C105.5 36.4508 105.514 36.3942 105.537 36.3204C105.583 36.1718 105.656 35.9774 105.762 35.7328C105.974 35.2439 106.298 34.5955 106.741 33.7815C107.625 32.1557 108.958 29.9142 110.744 27.0517L109.556 26.3106C107.765 29.1812 106.415 31.4502 105.511 33.1125C105.059 33.9426 104.713 34.6326 104.477 35.1765C104.359 35.4483 104.265 35.6939 104.199 35.9089C104.136 36.1129 104.084 36.3355 104.084 36.5454H105.484ZM110.743 27.0526C114.328 21.3261 117.483 16.5255 120.207 12.6486L119.062 11.8436C116.319 15.7473 113.15 20.5701 109.557 26.3097L110.743 27.0526ZM119.101 11.7937C112.781 19.2564 107.807 24.084 104.161 26.3582L104.902 27.5461C108.747 25.1471 113.842 20.1706 120.169 12.6984L119.101 11.7937ZM104.158 26.3598C102.886 27.1607 101.966 27.4807 101.352 27.4807V28.8807C102.375 28.8807 103.575 28.3816 104.904 27.5445L104.158 26.3598ZM101.352 27.4807C101.094 27.4807 100.816 27.408 100.508 27.2308L99.8099 28.444C100.297 28.7245 100.814 28.8807 101.352 28.8807V27.4807ZM100.517 27.2355C100.228 27.064 100.044 26.866 99.9318 26.6486L98.6883 27.2918C98.9372 27.773 99.3199 28.1532 99.8018 28.4393L100.517 27.2355ZM99.9404 26.6659C99.8476 26.4736 99.7571 25.998 99.7571 25.1094H98.3571C98.3571 26.0033 98.4352 26.7682 98.6797 27.2745L99.9404 26.6659ZM99.7571 25.1094C99.7571 24.3664 100.086 23.1943 100.849 21.5359L99.5775 20.9504C98.7994 22.6404 98.3571 24.0457 98.3571 25.1094H99.7571ZM100.85 21.5342C101.605 19.8827 102.582 18.1104 103.785 16.2166L102.603 15.466C101.373 17.4023 100.363 19.2312 99.5767 20.9521L100.85 21.5342ZM103.787 16.2146C105.936 12.8049 107.912 9.8943 109.717 7.48015L108.596 6.64192C106.763 9.09366 104.765 12.0366 102.602 15.4681L103.787 16.2146ZM108.687 6.5415C107.904 7.24859 107.215 7.75811 106.618 8.08786C106.017 8.42004 105.55 8.54707 105.2 8.54707V9.94707C105.873 9.94707 106.578 9.70976 107.295 9.31326C108.017 8.91433 108.795 8.33084 109.625 7.58057L108.687 6.5415ZM105.2 8.54707C104.993 8.54707 104.85 8.5321 104.757 8.51254C104.657 8.49121 104.666 8.4749 104.712 8.51397L103.808 9.58271C104.011 9.75426 104.255 9.83732 104.468 9.88223C104.688 9.92891 104.937 9.94707 105.2 9.94707V8.54707ZM104.755 8.55337C104.622 8.41981 104.425 8.21198 104.162 7.92494L103.13 8.87096C103.397 9.16205 103.61 9.38781 103.765 9.54331L104.755 8.55337ZM104.182 7.94771C104.021 7.75584 103.967 7.58617 103.967 7.42236H102.567C102.567 7.95713 102.765 8.43785 103.11 8.84818L104.182 7.94771ZM103.967 7.42236C103.967 7.12587 104.018 6.98332 104.051 6.92816L102.844 6.21833C102.635 6.57267 102.567 6.9962 102.567 7.42236H103.967ZM104.035 6.95352C104.154 6.76895 104.244 6.65783 104.304 6.59849L103.314 5.60854C103.156 5.766 103.005 5.96802 102.86 6.19297L104.035 6.95352ZM104.304 6.59849C104.505 6.39745 104.664 6.24355 104.785 6.13368C104.92 6.01106 104.97 5.97723 104.964 5.9811L104.243 4.78061C104.116 4.85676 103.974 4.9795 103.844 5.09776C103.699 5.22878 103.522 5.40008 103.314 5.60854L104.304 6.59849ZM104.964 5.9811C104.961 5.9826 104.963 5.98099 104.972 5.97866C104.982 5.97616 105.003 5.97246 105.037 5.97246V4.57246C104.767 4.57246 104.493 4.63108 104.243 4.78061L104.964 5.9811ZM105.037 5.97246C105.107 5.97246 105.083 5.98055 105.019 5.95912C104.985 5.94776 104.89 5.9122 104.796 5.81825C104.685 5.7071 104.608 5.54553 104.608 5.36279H106.008C106.008 4.8677 105.598 4.67651 105.462 4.63097C105.307 4.57943 105.148 4.57246 105.037 4.57246V5.97246ZM104.608 5.36279C104.608 5.2203 104.655 5.11962 104.676 5.07977C104.699 5.03514 104.721 5.00965 104.724 5.00548C104.731 4.99766 104.718 5.01337 104.666 5.05589L105.553 6.13943C105.633 6.07354 105.72 5.99591 105.793 5.9098C105.829 5.86649 105.876 5.80562 105.916 5.72938C105.953 5.6579 106.008 5.52937 106.008 5.36279H104.608ZM104.641 5.07735C104.562 5.14881 104.476 5.23544 104.404 5.33532C104.344 5.41984 104.229 5.60265 104.229 5.85059H105.629C105.629 5.95115 105.604 6.0273 105.586 6.07013C105.568 6.11339 105.55 6.14016 105.543 6.14905C105.532 6.16462 105.537 6.1549 105.578 6.11796L104.641 5.07735ZM104.229 5.85059C104.229 6.00266 104.274 6.16348 104.377 6.30406C104.474 6.43684 104.595 6.51287 104.689 6.55559C104.86 6.63324 105.03 6.64092 105.127 6.64092V5.24092C105.092 5.24092 105.163 5.23354 105.268 5.28108C105.329 5.30875 105.425 5.36596 105.506 5.47615C105.592 5.59415 105.629 5.72862 105.629 5.85059H104.229ZM105.127 6.64092C105.355 6.64092 105.596 6.59122 105.831 6.52214L105.436 5.17903C105.261 5.23039 105.165 5.24092 105.127 5.24092V6.64092ZM105.866 6.51068C106.115 6.42277 106.413 6.2856 106.75 6.11069L106.106 4.86783C105.793 5.03016 105.561 5.13387 105.4 5.19049L105.866 6.51068ZM106.759 6.10629C107.097 5.92501 107.4 5.76155 107.667 5.61599L106.996 4.38694C106.733 4.53044 106.434 4.69218 106.098 4.87222L106.759 6.10629ZM107.676 5.61086C107.956 5.4526 108.368 5.2164 108.91 4.90298L108.21 3.69077C107.668 4.00365 107.261 4.23718 106.987 4.39207L107.676 5.61086ZM108.92 4.89712C109.461 4.57264 109.864 4.33556 110.133 4.18361L109.444 2.96482C109.159 3.12603 108.743 3.37072 108.2 3.69663L108.92 4.89712ZM110.122 4.18972C110.455 4.00935 110.902 3.70875 111.449 3.30765L110.621 2.17868C110.084 2.5725 109.7 2.82594 109.455 2.95871L110.122 4.18972ZM111.451 3.30609C112.004 2.89778 112.38 2.64617 112.599 2.52664L111.928 1.29758C111.618 1.46712 111.175 1.76954 110.619 2.18024L111.451 3.30609ZM112.621 2.51378C112.803 2.40562 112.933 2.35693 113.017 2.33879C113.096 2.32172 113.11 2.33611 113.093 2.32912L113.603 1.02538C113.015 0.795299 112.404 1.0142 111.906 1.31043L112.621 2.51378ZM113.102 2.33268C113.399 2.44397 113.656 2.52937 113.859 2.57612L114.174 1.21197C114.063 1.18645 113.875 1.12732 113.593 1.02182L113.102 2.33268ZM113.869 2.5785C113.979 2.60204 114.048 2.63209 114.09 2.65689L114.81 1.4564C114.61 1.33666 114.39 1.25831 114.163 1.20958L113.869 2.5785ZM114.16 2.6939C114.246 2.73281 114.319 2.77724 114.381 2.82598L115.241 1.72089C115.087 1.60102 114.919 1.50092 114.739 1.41938L114.16 2.6939ZM114.406 2.84429C114.649 3.0171 114.671 3.13844 114.671 3.21289H116.071C116.071 2.56468 115.719 2.05972 115.216 1.70258L114.406 2.84429ZM114.671 3.21289C114.671 3.34011 114.6 3.60071 114.285 4.02371L115.409 4.8591C115.793 4.34265 116.071 3.78424 116.071 3.21289H114.671ZM114.279 4.03316C113.935 4.51212 113.164 5.63481 111.973 7.39083L113.132 8.17655C114.326 6.41564 115.085 5.31015 115.416 4.84965L114.279 4.03316ZM111.975 7.38898C110.78 9.13892 109.429 11.1533 107.922 13.4317L109.09 14.204C110.594 11.9297 111.941 9.9213 113.131 8.1784L111.975 7.38898ZM107.922 13.4325C106.422 15.7065 105.095 17.8445 103.943 19.846L105.156 20.5446C106.292 18.5715 107.603 16.4579 109.09 14.2033L107.922 13.4325ZM103.941 19.8488C103.37 20.8508 102.934 21.6821 102.638 22.337C102.49 22.6642 102.372 22.9579 102.29 23.2138C102.212 23.4585 102.151 23.7154 102.151 23.9531H103.551C103.551 23.9319 103.561 23.838 103.624 23.6401C103.684 23.4533 103.778 23.2126 103.914 22.9135C104.184 22.3158 104.596 21.5272 105.158 20.5418L103.941 19.8488ZM102.151 23.9531C102.151 24.0828 102.164 24.2888 102.27 24.4858C102.328 24.5947 102.42 24.7126 102.561 24.8008C102.705 24.8904 102.858 24.9241 102.996 24.9241V23.5241C103.085 23.5241 103.196 23.5466 103.303 23.6136C103.408 23.6792 103.471 23.7632 103.505 23.827C103.562 23.9336 103.551 24.0041 103.551 23.9531H102.151ZM102.996 24.9241C103.13 24.9241 103.237 24.8878 103.284 24.8708C103.342 24.8494 103.396 24.8238 103.439 24.8011C103.527 24.7556 103.623 24.6965 103.72 24.6319C103.918 24.5013 104.175 24.3137 104.487 24.0756L103.636 22.9635C103.333 23.1951 103.106 23.3598 102.948 23.464C102.868 23.5169 102.819 23.5459 102.793 23.559C102.781 23.5657 102.786 23.5622 102.804 23.5554C102.811 23.5531 102.886 23.5241 102.996 23.5241V24.9241ZM104.489 24.0735C107.761 21.5465 111.904 17.6066 116.911 12.2736L115.891 11.3153C110.901 16.6294 106.818 20.5062 103.634 22.9655L104.489 24.0735ZM116.911 12.2737C121.002 7.91864 123.465 5.17253 124.235 4.0876L123.093 3.27764C122.393 4.26432 120.014 6.92608 115.891 11.3152L116.911 12.2737ZM124.229 4.09563C124.427 3.82423 124.571 3.71363 124.645 3.67639L124.019 2.42419C123.66 2.60375 123.358 2.9147 123.098 3.26961L124.229 4.09563ZM124.632 3.68291C124.719 3.64151 124.937 3.5877 125.362 3.5877V2.1877C124.871 2.1877 124.403 2.24228 124.032 2.41768L124.632 3.68291ZM125.349 3.58758L126.361 3.60565L126.386 2.20587L125.374 2.18781L125.349 3.58758Z" fill="#151515"/>
</g>
<defs>
<clipPath id="clip0_1_2">
<rect width="129" height="40" fill="white"/>
</clipPath>
</defs>
</svg>
