<?xml version="1.0"?>
<svg version="1.1" xmlns="http://www.w3.org/2000/svg" width="400px" height="200px" style="border: dashed 2px #aaa"><path fill="#384a48" d="M37.62109375,127.11328125q0-3.09375,0.794921875-6.208984375t2.470703125-5.5859375t4.275390625-4.017578125t6.123046875-1.546875q1.50390625,0,3.30859375,0.365234375t3.330078125,1.16015625t2.578125,2.0625t1.052734375,3.115234375q0,1.16015625-0.6015625,1.546875t-1.58984375,0.38671875l-0.30078125-0.4296875t-0.837890625-1.095703125t-1.138671875-1.41796875t-1.16015625-1.267578125q-1.76171875-1.76171875-3.30859375-1.890625l-0.34375,0q-1.2890625,0-2.40625,0.7734375q-1.24609375,0.9453125-2.212890625,2.6640625t-1.611328125,3.65234375t-1.009765625,3.91015625t-0.365234375,3.265625q0,1.76171875,0.408203125,4.017578125t1.375,4.275390625t2.44921875,3.39453125t3.802734375,1.375q2.10546875,0,3.82421875-1.03125t3.287109375-2.298828125t3.072265625-2.27734375t3.09375-1.009765625q0.6875,0,1.396484375,0.171875t0.708984375,0.90234375l0,0.2578125q-0.7734375,2.01953125-2.62109375,3.56640625t-4.146484375,2.685546875t-4.76953125,1.697265625t-4.404296875,0.55859375q-3.609375,0-6.337890625-1.181640625t-4.533203125-3.244140625t-2.728515625-4.962890625t-0.923828125-6.337890625z M74.2592578125,128.7890625q0-2.44921875,0.623046875-5.048828125t1.9765625-4.68359375t3.416015625-3.39453125t4.984375-1.310546875q2.19140625,0,4.619140625,0.751953125t4.447265625,2.1484375t3.287109375,3.416015625t1.267578125,4.51171875q0,3.0078125-1.095703125,5.71484375t-3.072265625,4.833984375t-4.619140625,3.3515625t-5.736328125,1.224609375q-2.53515625,0-4.42578125-0.923828125t-3.158203125-2.470703125t-1.890625-3.65234375t-0.623046875-4.46875z M80.5756640625,128.703125q0,0.7734375,0.236328125,2.27734375t0.708984375,2.943359375t1.224609375,2.4921875t1.826171875,0.966796875q2.27734375-0.2578125,3.759765625-1.482421875t2.40625-2.986328125t1.2890625-3.82421875t0.365234375-3.91015625q0-2.36328125-0.923828125-3.953125t-3.029296875-2.578125q0,0.0859375,0.0859375,0.0859375t0.0859375-0.0859375l-1.07421875-0.2578125q-0.4296875-0.171875-1.052734375-0.38671875t-1.224609375-0.9453125q-1.67578125,0.6015625-2.599609375,1.546875t-1.396484375,2.298828125t-0.580078125,3.244140625t-0.107421875,4.5546875z M106.858359375,128.1875l0-1.24609375q0-1.546875,0.0859375-2.921875q0.0859375-1.93359375,0.0859375-3.1796875q0-0.6875,0.0859375-1.568359375t0.4296875-1.396484375q0.4296875-0.4296875,1.009765625-0.880859375t1.267578125-0.451171875q2.19140625,0,3.4375,0.494140625t1.33203125,2.041015625l0.171875,1.33203125q0.7734375-1.84765625,2.0625-4.576171875t2.986328125-5.19921875t3.82421875-4.2109375t4.490234375-1.740234375q2.19140625,0,3.609375,2.0625t2.255859375,5.263671875t1.181640625,7.1328125t0.47265625,7.712890625t0.171875,6.896484375t0.30078125,4.705078125q0.171875,1.33203125,0.580078125,2.814453125t0.408203125,2.728515625q0,0.34375-0.494140625,0.666015625t-1.052734375,0.537109375t-1.138671875,0.34375t-0.837890625,0.12890625q-1.67578125,0-2.384765625-2.513671875t-0.880859375-6.294921875t-0.171875-8.185546875t-0.30078125-8.185546875t-1.224609375-6.294921875t-2.943359375-2.599609375q-1.84765625,0-3.82421875,2.384765625t-3.39453125,6.337890625q-1.375,3.953125-1.890625,8.98046875q-0.171875,1.58984375-0.171875,3.1796875q0,3.48046875,0.73046875,6.9609375q0.0859375,0.6015625-0.494140625,0.90234375t-1.439453125,0.47265625t-1.740234375,0.21484375t-1.353515625,0.04296875q-1.67578125,0-2.685546875-1.181640625t-1.568359375-3.029296875t-0.751953125-4.146484375t-0.236328125-4.533203125z M144.1410546875,111.98828125q0-0.34375,0.408203125-0.623046875t0.923828125-0.408203125t1.052734375-0.171875t0.794921875-0.04296875q1.93359375,0,3.30859375,1.71875t2.384765625,4.404296875t1.71875,5.9296875t1.353515625,6.466796875t1.267578125,5.908203125t1.396484375,4.146484375q1.33203125-2.62109375,2.427734375-6.31640625t2.01953125-7.6484375t1.6328125-7.798828125t1.138671875-6.724609375q0.171875-0.7734375,1.07421875-0.966796875t1.50390625-0.193359375q0.98828125,0,1.71875,0.279296875t0.73046875,1.224609375q0,1.58984375-0.38671875,4.318359375t-1.052734375,6.123046875t-1.546875,6.9609375t-1.890625,6.767578125t-2.10546875,5.671875t-2.169921875,3.501953125q-0.515625,0.6015625-1.611328125,0.837890625t-1.826171875,0.236328125q-2.53515625,0-4.2109375-1.33203125l0,0.0859375q-2.62109375-2.44921875-3.8671875-5.97265625t-1.8046875-7.34765625t-1.009765625-7.60546875t-1.525390625-6.875q-0.171875-0.34375-0.4296875-1.009765625t-0.6015625-1.33203125t-0.580078125-1.267578125t-0.236328125-0.9453125z M178.02921875,129.734375q0-3.0078125,0.666015625-7.08984375t2.255859375-7.734375t4.189453125-6.208984375t6.552734375-2.556640625q3.6953125,0,5.54296875,2.126953125t1.84765625,5.736328125q0,2.36328125-0.880859375,5.177734375t-2.513671875,5.328125t-3.8671875,4.189453125t-4.984375,1.67578125l-1.1171875-0.0859375q0,1.16015625,0.34375,3.115234375t1.009765625,3.888671875t1.71875,3.39453125t2.556640625,1.4609375q2.19140625,0,4.2109375-1.76171875t3.82421875-3.91015625t3.3515625-3.91015625t2.8359375-1.76171875q0.6875,0,1.41796875,0.21484375t0.81640625,1.203125q0,0.6015625-0.322265625,0.98828125t-0.580078125,0.859375q-1.33203125,2.27734375-2.900390625,4.33984375t-3.544921875,3.73828125t-4.318359375,2.642578125t-5.177734375,0.966796875q-3.6953125,0-6.14453125-1.310546875t-3.953125-3.5234375t-2.169921875-5.11328125t-0.666015625-6.080078125z M185.720625,126.46875l1.203125,1.07421875q0.859375,0.7734375,1.71875,0.34375t1.546875-1.568359375t1.267578125-2.814453125t1.03125-3.4375t0.666015625-3.4375t0.21484375-2.79296875l0-1.4609375t-0.12890625-1.546875t-0.451171875-1.224609375t-1.009765625-0.623046875q-0.21484375-0.04296875-0.38671875-0.04296875q-1.4609375,0-2.4921875,1.84765625q-1.1171875,2.0625-1.8046875,5.005859375t-0.98828125,6.037109375t-0.38671875,4.640625z M213.9798828125,128.1875l0-1.24609375q0-1.546875,0.0859375-2.921875q0.0859375-1.93359375,0.0859375-3.1796875q0-0.6875,0.0859375-1.568359375t0.4296875-1.396484375q0.4296875-0.4296875,1.009765625-0.880859375t1.267578125-0.451171875q2.19140625,0,3.4375,0.494140625t1.33203125,2.041015625l0.171875,1.33203125q0.7734375-1.84765625,2.0625-4.576171875t2.986328125-5.19921875t3.82421875-4.2109375t4.490234375-1.740234375q2.19140625,0,3.609375,2.0625t2.255859375,5.263671875t1.181640625,7.1328125t0.47265625,7.712890625t0.171875,6.896484375t0.30078125,4.705078125q0.171875,1.33203125,0.580078125,2.814453125t0.408203125,2.728515625q0,0.34375-0.494140625,0.666015625t-1.052734375,0.537109375t-1.138671875,0.34375t-0.837890625,0.12890625q-1.67578125,0-2.384765625-2.513671875t-0.880859375-6.294921875t-0.171875-8.185546875t-0.30078125-8.185546875t-1.224609375-6.294921875t-2.943359375-2.599609375q-1.84765625,0-3.82421875,2.384765625t-3.39453125,6.337890625q-1.375,3.953125-1.890625,8.98046875q-0.171875,1.58984375-0.171875,3.1796875q0,3.48046875,0.73046875,6.9609375q0.0859375,0.6015625-0.494140625,0.90234375t-1.439453125,0.47265625t-1.740234375,0.21484375t-1.353515625,0.04296875q-1.67578125,0-2.685546875-1.181640625t-1.568359375-3.029296875t-0.751953125-4.146484375t-0.236328125-4.533203125z M253.024296875,129.734375q0-3.0078125,0.666015625-7.08984375t2.255859375-7.734375t4.189453125-6.208984375t6.552734375-2.556640625q3.6953125,0,5.54296875,2.126953125t1.84765625,5.736328125q0,2.36328125-0.880859375,5.177734375t-2.513671875,5.328125t-3.8671875,4.189453125t-4.984375,1.67578125l-1.1171875-0.0859375q0,1.16015625,0.34375,3.115234375t1.009765625,3.888671875t1.71875,3.39453125t2.556640625,1.4609375q2.19140625,0,4.2109375-1.76171875t3.82421875-3.91015625t3.3515625-3.91015625t2.8359375-1.76171875q0.6875,0,1.41796875,0.21484375t0.81640625,1.203125q0,0.6015625-0.322265625,0.98828125t-0.580078125,0.859375q-1.33203125,2.27734375-2.900390625,4.33984375t-3.544921875,3.73828125t-4.318359375,2.642578125t-5.177734375,0.966796875q-3.6953125,0-6.14453125-1.310546875t-3.953125-3.5234375t-2.169921875-5.11328125t-0.666015625-6.080078125z M260.715703125,126.46875l1.203125,1.07421875q0.859375,0.7734375,1.71875,0.34375t1.546875-1.568359375t1.267578125-2.814453125t1.03125-3.4375t0.666015625-3.4375t0.21484375-2.79296875l0-1.4609375t-0.12890625-1.546875t-0.451171875-1.224609375t-1.009765625-0.623046875q-0.21484375-0.04296875-0.38671875-0.04296875q-1.4609375,0-2.4921875,1.84765625q-1.1171875,2.0625-1.8046875,5.005859375t-0.98828125,6.037109375t-0.38671875,4.640625z M287.1702734375,100.6875q0-0.6015625,1.2890625-1.03125t2.921875-0.708984375t3.158203125-0.408203125t2.083984375-0.21484375q0-1.16015625,0.0859375-2.341796875t0.47265625-2.10546875t1.224609375-1.482421875t2.341796875-0.55859375q1.24609375,0,1.890625,0.30078125t1.375,1.24609375q0.171875,0.515625,0.171875,0.98828125l0,1.439453125t-0.0859375,1.482421875q1.58984375-0.171875,3.158203125-0.408203125t3.158203125-0.236328125q1.16015625,0,1.58984375,0.04296875t0.859375,1.03125q0.34375,0.98828125-0.837890625,1.50390625t-2.8359375,0.7734375t-3.287109375,0.38671875t-1.9765625,0.12890625q-0.515625,7.390625-1.052734375,14.65234375t-0.537109375,14.73828125q0,3.3515625,0.21484375,6.91796875t1.203125,6.74609375q0.2578125,0.98828125,0.859375,1.84765625t0.6015625,1.84765625q0,0.6015625-0.47265625,0.9453125t-1.138671875,0.580078125t-1.33203125,0.279296875t-1.095703125,0.04296875q-2.70703125,0-4.125-2.01953125t-2.041015625-4.833984375t-0.666015625-5.779296875t-0.04296875-4.8125q0-3.78125,0.150390625-7.734375t0.365234375-7.8203125t0.6015625-7.5625t0.90234375-6.875q-1.50390625,0.171875-2.943359375,0.38671875t-2.943359375,0.21484375q-0.34375,0-0.923828125-0.04296875t-1.095703125-0.21484375t-0.880859375-0.47265625t-0.365234375-0.859375z"/><path fill="#" d=""/></svg>
